<?xml version="1.0" encoding="utf-8"?>
<!-- Generator: Adobe Illustrator 22.0.1, SVG Export Plug-In . SVG Version: 6.00 Build 0)  -->
<svg version="1.1" id="Layer_2" xmlns="http://www.w3.org/2000/svg" xmlns:xlink="http://www.w3.org/1999/xlink" x="0px" y="0px"
	 viewBox="0 0 2272 1872" style="enable-background:new 0 0 2272 1872;" xml:space="preserve">
<style type="text/css">
	.st0{fill:#FFFFFF;}
	.st1{fill:#BDDEF7;}
	.st2{fill:#896043;}
	.st3{fill:#9E6D4C;}
	.st4{fill:#9B7D68;}
	.st5{fill:#445F63;}
	.st6{fill:#896E5B;}
	.st7{fill:#BF9A80;}
	.st8{fill:#D36B46;}
	.st9{fill:#BC593B;}
	.st10{fill:#AD4F32;}
	.st11{fill:#494645;}
	.st12{fill:#E0B394;}
	.st13{fill:#54737A;}
	.st14{fill:#849344;}
	.st15{fill:#A1B262;}
	.st16{fill:#CADD7A;}
	.st17{fill:#C18F36;}
	.st18{fill:#FFC261;}
	.st19{fill:#A57555;}
	.st20{fill:#DD965B;}
	.st21{fill:#FFAA45;}
	.st22{fill:#FFB878;}
	.st23{fill:#FCE15E;}
	.st24{fill:#F9BD5F;}
	.st25{fill:#6D7172;}
	.st26{fill:#A7A8A8;}
	.st27{fill:#848484;}
	.st28{fill:#C6C6C6;}
</style>
<g>
	<polyline class="st0" points="2272,1872 2272,0 0,0 0,1872 	"/>
</g>
<path class="st1" d="M2112.9,428.2c-5.1-32.7-33.3-57.7-67.4-57.7c-0.1,0-0.2,0-0.3,0c6.3-10.3,9.9-22.4,9.9-35.4
	c0-37.7-30.5-68.2-68.2-68.2c-18.7,0-35.6,7.5-48,19.7c-16.5-35.3-52.3-59.7-93.8-59.7c-57.2,0-103.5,46.4-103.5,103.5
	c0,2.5,0.1,5.1,0.3,7.6c-21.8,5.3-40.9,17.5-54.9,34.2c-4.9-1.1-10.1-1.8-15.4-1.8c-34.1,0-62.3,25-67.4,57.7H2112.9z"/>
<g>
	<g>
		<rect x="1517.7" y="460.2" class="st2" width="133.1" height="64.1"/>
		<rect x="1578.1" y="460.2" class="st3" width="133.1" height="64.1"/>
		<rect x="1535.8" y="396.1" class="st2" width="133.1" height="64.1"/>
		<rect x="1482.4" y="335.2" class="st2" width="133.1" height="64.1"/>
		<rect x="1590.5" y="335.2" class="st3" width="133.1" height="64.1"/>
		<rect x="1505.3" y="271.1" class="st3" width="133.1" height="64.1"/>
		<rect x="1549" y="524.3" class="st2" width="133.1" height="64.1"/>
	</g>
	<polygon class="st4" points="1133.7,141.1 598,649.3 598,1683.5 1711.3,1683.5 1711.3,649.3 	"/>
	<path class="st5" d="M848.8,921.7c0,0-37.8,109.7,36.4,248.8c5.3,9.9,17.3,14.3,27.7,10c10.6-4.4,16.1-16.3,12.4-27.2
		c-14.4-42.9-45.5-147.1-30.8-205.3C897,938.2,848.8,921.7,848.8,921.7z"/>
	<rect x="892.9" y="992.7" class="st6" width="67" height="690.9"/>
	<rect x="892.9" y="335.2" class="st6" width="67" height="659.6"/>
	<polygon class="st6" points="1711.3,649.3 1133.7,141.1 1133.7,1007.9 1133.7,1683.5 1711.3,1683.5 	"/>
	<g>
		<rect x="91.3" y="950.4" class="st7" width="525.3" height="546.2"/>
		<rect x="91.3" y="950.4" class="st4" width="525.3" height="84.6"/>
		<polygon class="st8" points="0,974.1 616.6,974.1 616.6,588.4 146.9,588.4 0,922.6 		"/>
		<g>
			<polygon class="st9" points="276.9,588.4 116.1,974.1 189.3,974.1 350.1,588.4 			"/>
			<polygon class="st9" points="146.9,588.4 0,922.6 0,974.1 42.9,974.1 203.7,588.4 			"/>
			<polygon class="st9" points="423.3,588.4 262.5,974.1 335.7,974.1 496.5,588.4 			"/>
			<polygon class="st9" points="616.6,588.4 569.7,588.4 408.9,974.1 482.1,974.1 616.6,651.5 			"/>
		</g>
		<polygon class="st10" points="0.7,920.9 0,922.6 0,974.1 616.6,974.1 616.6,920.9 		"/>
		<rect x="218.6" y="1060.7" class="st4" width="334" height="378"/>
		<rect x="241.6" y="1086.7" class="st11" width="287.9" height="326"/>
		<rect x="376.3" y="1074.3" class="st4" width="18.5" height="350.7"/>
		<rect x="91.3" y="1043.2" class="st12" width="24.8" height="430.9"/>
	</g>
	<g>
		<path class="st13" d="M2107.8,661.7c-10.6,0-20.4-6.9-23.5-17.6l-44.2-150.6c-3.8-13,3.6-26.6,16.6-30.4
			c13-3.8,26.6,3.6,30.4,16.6l44.2,150.6c3.8,13-3.6,26.6-16.6,30.4C2112.4,661.3,2110.1,661.7,2107.8,661.7z"/>
	</g>
	<g>
		
			<rect x="1650.8" y="950.4" transform="matrix(-1 -4.489576e-11 4.489576e-11 -1 3826.9644 2446.8914)" class="st7" width="525.3" height="546.2"/>
		<rect x="1650.8" y="950.4" class="st4" width="525.3" height="84.6"/>
		<polygon class="st8" points="2267.4,974.1 1650.8,974.1 1650.8,588.4 2120.6,588.4 2267.4,922.6 		"/>
		<g>
			<polygon class="st9" points="1990.5,588.4 2151.4,974.1 2078.2,974.1 1917.3,588.4 			"/>
			<polygon class="st9" points="2120.6,588.4 2267.4,922.6 2267.4,974.1 2224.6,974.1 2063.7,588.4 			"/>
			<polygon class="st9" points="1844.1,588.4 2005,974.1 1931.8,974.1 1770.9,588.4 			"/>
			<polygon class="st9" points="1650.8,588.4 1697.7,588.4 1858.6,974.1 1785.4,974.1 1650.8,651.5 			"/>
		</g>
		<polygon class="st10" points="2266.7,920.9 2267.4,922.6 2267.4,974.1 1650.8,974.1 1650.8,920.9 		"/>
		
			<rect x="1714.9" y="1060.7" transform="matrix(-1 -4.489843e-11 4.489843e-11 -1 3763.7219 2499.3574)" class="st4" width="334" height="378"/>
		
			<rect x="1737.9" y="1086.7" transform="matrix(-1 -4.489665e-11 4.489665e-11 -1 3763.7219 2499.3574)" class="st11" width="287.9" height="326"/>
		
			<rect x="1872.6" y="1074.3" transform="matrix(-1 -4.492818e-11 4.492818e-11 -1 3763.7219 2499.3574)" class="st4" width="18.5" height="350.7"/>
		
			<rect x="2151.4" y="1043.2" transform="matrix(-1 -4.486113e-11 4.486113e-11 -1 4327.479 2517.2783)" class="st12" width="24.8" height="430.9"/>
	</g>
	<g>
		<polyline class="st14" points="2272,1872 2272,1683.5 0,1683.5 0,1872 		"/>
	</g>
	<g>
		<polyline class="st15" points="2272,1872 2272,1738.9 0,1738.9 0,1872 		"/>
	</g>
	<g>
		<polyline class="st16" points="2272,1872 2272,1805.4 0,1805.4 0,1872 		"/>
	</g>
	<g>
		<g>
			
				<rect x="1091.4" y="475.6" transform="matrix(-1.836970e-16 1 -1 -1.836970e-16 2126.4104 -141.0289)" class="st17" width="84.6" height="1034.2"/>
			
				<rect x="1121.9" y="445.1" transform="matrix(-1.836970e-16 1 -1 -1.836970e-16 2095.9329 -171.5064)" class="st18" width="23.7" height="1034.2"/>
		</g>
		<g>
			
				<rect x="1109.2" y="91.9" transform="matrix(-1.836970e-16 1 -1 -1.836970e-16 1525.4567 -741.9825)" class="st17" width="49.1" height="599.6"/>
			
				<rect x="1126.9" y="74.2" transform="matrix(-1.836970e-16 1 -1 -1.836970e-16 1507.7861 -759.6531)" class="st18" width="13.7" height="599.6"/>
		</g>
		<g>
			<rect x="574.3" y="649.3" class="st17" width="84.6" height="1034.2"/>
			<rect x="574.3" y="649.3" class="st18" width="23.7" height="1034.2"/>
		</g>
		<g>
			
				<rect x="754.5" y="-61.3" transform="matrix(0.7004 0.7137 -0.7137 0.7004 564.0446 -432.1825)" class="st17" width="84.6" height="1034.2"/>
			
				<rect x="763.7" y="-83.1" transform="matrix(0.7004 0.7137 -0.7137 0.7004 542.1238 -423.4631)" class="st18" width="23.7" height="1034.2"/>
		</g>
		<g>
			<g>
				<rect x="1626.6" y="649.3" class="st17" width="84.6" height="1034.2"/>
				<rect x="1626.6" y="649.3" class="st18" width="23.7" height="1034.2"/>
			</g>
			
				<rect x="1432.8" y="-61.3" transform="matrix(-0.7004 0.7137 -0.7137 -0.7004 2833.7063 -277.7916)" class="st17" width="84.6" height="1034.2"/>
			
				<rect x="1484.7" y="-83.1" transform="matrix(-0.7004 0.7137 -0.7137 -0.7004 2854.4797 -330.0165)" class="st18" width="23.7" height="1034.2"/>
		</g>
	</g>
	<g>
		<g>
			<polyline class="st19" points="1476.4,1683.5 1476.4,1496.5 2271.9,1496.5 2271.9,1683.5 			"/>
		</g>
		<path class="st2" d="M1542.3,1525.1c9.2,0,16.7,7.5,16.7,16.7v11.5c0,9.2-7.5,16.7-16.7,16.7h-65.9v-45H1542.3z"/>
		<path class="st2" d="M2206.7,1630v-11.5c0-9.2,7.5-16.7,16.7-16.7h48.5v45h-48.5C2214.2,1646.7,2206.7,1639.2,2206.7,1630z"/>
		<g>
			<path class="st2" d="M2157.9,1525.1h77.7c9.2,0,16.7,7.5,16.7,16.7v11.5c0,9.2-7.5,16.7-16.7,16.7h-77.7
				c-9.2,0-16.7-7.5-16.7-16.7v-11.5C2141.2,1532.6,2148.7,1525.1,2157.9,1525.1z"/>
			<path class="st2" d="M2021.9,1525.1h77.7c9.2,0,16.7,7.5,16.7,16.7v11.5c0,9.2-7.5,16.7-16.7,16.7h-77.7
				c-9.2,0-16.7-7.5-16.7-16.7v-11.5C2005.2,1532.6,2012.6,1525.1,2021.9,1525.1z"/>
		</g>
		<g>
			<path class="st2" d="M2086.2,1601.7h77.7c9.2,0,16.7,7.5,16.7,16.7v11.5c0,9.2-7.5,16.7-16.7,16.7h-77.7
				c-9.2,0-16.7-7.5-16.7-16.7v-11.5C2069.4,1609.2,2076.9,1601.7,2086.2,1601.7z"/>
			<path class="st2" d="M1950.2,1601.7h77.7c9.2,0,16.7,7.5,16.7,16.7v11.5c0,9.2-7.5,16.7-16.7,16.7h-77.7
				c-9.2,0-16.7-7.5-16.7-16.7v-11.5C1933.4,1609.2,1940.9,1601.7,1950.2,1601.7z"/>
		</g>
		<path class="st2" d="M1885.9,1525.1h77.7c9.2,0,16.7,7.5,16.7,16.7v11.5c0,9.2-7.5,16.7-16.7,16.7h-77.7
			c-9.2,0-16.7-7.5-16.7-16.7v-11.5C1869.2,1532.6,1876.6,1525.1,1885.9,1525.1z"/>
		<path class="st2" d="M1736.1,1525.1h77.7c9.2,0,16.7,7.5,16.7,16.7v11.5c0,9.2-7.5,16.7-16.7,16.7h-77.7
			c-9.2,0-16.7-7.5-16.7-16.7v-11.5C1719.3,1532.6,1726.8,1525.1,1736.1,1525.1z"/>
		<g>
			<path class="st2" d="M1800.4,1601.7h77.7c9.2,0,16.7,7.5,16.7,16.7v11.5c0,9.2-7.5,16.7-16.7,16.7h-77.7
				c-9.2,0-16.7-7.5-16.7-16.7v-11.5C1783.6,1609.2,1791.1,1601.7,1800.4,1601.7z"/>
			<path class="st2" d="M1664.4,1601.7h77.7c9.2,0,16.7,7.5,16.7,16.7v11.5c0,9.2-7.5,16.7-16.7,16.7h-77.7
				c-9.2,0-16.7-7.5-16.7-16.7v-11.5C1647.6,1609.2,1655.1,1601.7,1664.4,1601.7z"/>
			<path class="st2" d="M1520.2,1601.7h77.7c9.2,0,16.7,7.5,16.7,16.7v11.5c0,9.2-7.5,16.7-16.7,16.7h-77.7
				c-9.2,0-16.7-7.5-16.7-16.7v-11.5C1503.5,1609.2,1511,1601.7,1520.2,1601.7z"/>
		</g>
		<path class="st2" d="M1600.1,1525.1h77.7c9.2,0,16.7,7.5,16.7,16.7v11.5c0,9.2-7.5,16.7-16.7,16.7h-77.7
			c-9.2,0-16.7-7.5-16.7-16.7v-11.5C1583.3,1532.6,1590.8,1525.1,1600.1,1525.1z"/>
	</g>
	<g>
		<g>
			<polyline class="st19" points="795.5,1683.5 795.5,1496.5 0,1496.5 0,1683.5 			"/>
		</g>
		<path class="st2" d="M729.6,1525.1c-9.2,0-16.7,7.5-16.7,16.7v11.5c0,9.2,7.5,16.7,16.7,16.7h65.9v-45H729.6z"/>
		<path class="st2" d="M65.2,1630v-11.5c0-9.2-7.5-16.7-16.7-16.7H0v45h48.5C57.7,1646.7,65.2,1639.2,65.2,1630z"/>
		<g>
			<path class="st2" d="M114,1525.1H36.3c-9.2,0-16.7,7.5-16.7,16.7v11.5c0,9.2,7.5,16.7,16.7,16.7H114c9.2,0,16.7-7.5,16.7-16.7
				v-11.5C130.7,1532.6,123.2,1525.1,114,1525.1z"/>
			<path class="st2" d="M250,1525.1h-77.7c-9.2,0-16.7,7.5-16.7,16.7v11.5c0,9.2,7.5,16.7,16.7,16.7H250c9.2,0,16.7-7.5,16.7-16.7
				v-11.5C266.7,1532.6,259.2,1525.1,250,1525.1z"/>
		</g>
		<g>
			<path class="st2" d="M185.7,1601.7h-77.7c-9.2,0-16.7,7.5-16.7,16.7v11.5c0,9.2,7.5,16.7,16.7,16.7h77.7
				c9.2,0,16.7-7.5,16.7-16.7v-11.5C202.4,1609.2,194.9,1601.7,185.7,1601.7z"/>
			<path class="st2" d="M321.7,1601.7h-77.7c-9.2,0-16.7,7.5-16.7,16.7v11.5c0,9.2,7.5,16.7,16.7,16.7h77.7
				c9.2,0,16.7-7.5,16.7-16.7v-11.5C338.4,1609.2,331,1601.7,321.7,1601.7z"/>
		</g>
		<path class="st2" d="M386,1525.1h-77.7c-9.2,0-16.7,7.5-16.7,16.7v11.5c0,9.2,7.5,16.7,16.7,16.7H386c9.2,0,16.7-7.5,16.7-16.7
			v-11.5C402.7,1532.6,395.2,1525.1,386,1525.1z"/>
		<path class="st2" d="M535.8,1525.1h-77.7c-9.2,0-16.7,7.5-16.7,16.7v11.5c0,9.2,7.5,16.7,16.7,16.7h77.7c9.2,0,16.7-7.5,16.7-16.7
			v-11.5C552.6,1532.6,545.1,1525.1,535.8,1525.1z"/>
		<g>
			<path class="st2" d="M471.5,1601.7h-77.7c-9.2,0-16.7,7.5-16.7,16.7v11.5c0,9.2,7.5,16.7,16.7,16.7h77.7
				c9.2,0,16.7-7.5,16.7-16.7v-11.5C488.3,1609.2,480.8,1601.7,471.5,1601.7z"/>
			<path class="st2" d="M607.5,1601.7h-77.7c-9.2,0-16.7,7.5-16.7,16.7v11.5c0,9.2,7.5,16.7,16.7,16.7h77.7
				c9.2,0,16.7-7.5,16.7-16.7v-11.5C624.3,1609.2,616.8,1601.7,607.5,1601.7z"/>
			<path class="st2" d="M751.7,1601.7H674c-9.2,0-16.7,7.5-16.7,16.7v11.5c0,9.2,7.5,16.7,16.7,16.7h77.7c9.2,0,16.7-7.5,16.7-16.7
				v-11.5C768.4,1609.2,760.9,1601.7,751.7,1601.7z"/>
		</g>
		<path class="st2" d="M671.8,1525.1h-77.7c-9.2,0-16.7,7.5-16.7,16.7v11.5c0,9.2,7.5,16.7,16.7,16.7h77.7c9.2,0,16.7-7.5,16.7-16.7
			v-11.5C688.6,1532.6,681.1,1525.1,671.8,1525.1z"/>
	</g>
</g>
<path class="st1" d="M596.9,428.2c-5.1-32.7-33.3-57.7-67.4-57.7c-0.1,0-0.2,0-0.3,0c6.3-10.3,9.9-22.4,9.9-35.4
	c0-37.7-30.5-68.2-68.2-68.2c-18.7,0-35.6,7.5-48,19.7c-16.5-35.3-52.3-59.7-93.8-59.7c-57.2,0-103.5,46.4-103.5,103.5
	c0,2.5,0.1,5.1,0.3,7.6c-21.8,5.3-40.9,17.5-54.9,34.2c-4.9-1.1-10.1-1.8-15.4-1.8c-34.1,0-62.3,25-67.4,57.7H596.9z"/>
<g>
	<g>
		<path class="st20" d="M1880.1,533.5c-14.3,0-30.1-3.9-47.3-11.6c-9.3-4.2-13.5-15.2-9.3-24.5c4.2-9.3,15.2-13.5,24.5-9.3
			c13.9,6.3,33.4,12.2,46.7,4.9c5.8-3.2,10.5-8.7,14-16.4c3-6.6,3.9-12.3,4-12.9c1.3-9.9,10.3-17.1,20.3-16
			c10.2,1.1,17.5,10.2,16.4,20.4c0,0.4-4.6,38.8-36,56.8C1903.6,530.7,1892.4,533.5,1880.1,533.5z M1912.8,463.8c0,0.2,0,0.3,0,0.4
			C1912.7,464.1,1912.8,463.9,1912.8,463.8z"/>
	</g>
	<g>
		<path class="st21" d="M1960.2,377.9c-9.1-1.6-18.3,1.8-24.3,8.8c-5.2,6-12.1,14.3-18.6,23.3c-15.9,22-11.6,52.8,9.7,69.7l107.3,85
			l45.5-61.3c12.8-17.2,10.4-41.3-5.5-55.7C2045.5,421.5,1998.8,384.5,1960.2,377.9z"/>
		<path class="st13" d="M2074.4,447.6l-87.3,79.6l47.3,37.4l45.5-61.3C2092.6,486.1,2090.3,462,2074.4,447.6z"/>
		<path class="st22" d="M1928.5,349.3l-17.9-27.6l-13.6,8.6l-9.9,6.3c0,0,0,0,0,0l-66.7,42.1l21.5,30.9
			c16.6,23.9,49.5,29.8,73.5,13.2C1939.2,406.2,1945.1,373.3,1928.5,349.3z"/>
		<path class="st20" d="M1928.5,349.3l-17.9-27.6l-13.6,8.6l-9.9,6.3c0,0,0,0,0,0l-5.3,3.4l14.8,22.8c15.4,22.1,11.5,51.9-8.1,69.4
			c9.3-0.6,18.6-3.6,26.9-9.4C1939.2,406.2,1945.1,373.3,1928.5,349.3z"/>
		<polygon class="st23" points="1896.9,330.3 1910.6,321.7 1931.1,308.7 1931.1,308.7 		"/>
		<path class="st23" d="M1869.8,334c-2-2.3-3.1-5.2-3.2-8l-26.1,15.8c-19.6-25.2-19-46.7-17.9-54.2c0,0,0,0,0,0
			c-3,1.9-5.7,4.1-8.1,6.4c0.6-0.6,1.2-1.1,1.8-1.7c-3.9,12.8-5.6,33.7,10.4,57.9l-11.5,7c-14-24.4-8.7-47.3-2.5-61.4
			c0.6-0.6,1.2-1.2,1.8-1.8c-17.2,16.6-20.8,43.4-7.7,64.2l-12.8,8.6l13.5,20l12.9-8.2l66.7-42.1
			C1881.4,340.1,1874.1,339,1869.8,334z"/>
		<path class="st23" d="M1866.7,323.8c0.4-3.7,2.4-7.2,5.8-9.5l12.7-8.5c-18.7-22.7-40.7-25.4-51.8-25c0.5-0.3,0.9-0.5,1.4-0.8
			c11.7-1.9,39.7-3.5,61.2,18.6l17.9-12l0,0l-12.4,8.3l-3-3.5c-16.7-19.3-45-23.4-66.5-9.7l-7.7,4.9l0.7-0.4
			C1833.8,289,1852.1,297.7,1866.7,323.8z"/>
		<path class="st24" d="M1840.5,341.9l26.1-15.8c0.1,2.8,1.2,5.6,3.2,8c4.3,5,11.6,6.1,17.2,2.6c0,0,0,0,0,0l9.9-6.3l34.2-21.6h0
			l-17.2-22.1l0,0l-17.9,12c-21.5-22-49.5-20.5-61.2-18.6c-0.5,0.3-0.9,0.5-1.4,0.8c11.1-0.4,33.1,2.3,51.8,25l-12.7,8.5
			c-3.4,2.3-5.4,5.8-5.8,9.5c-14.6-26-32.9-34.8-41.8-37.6l-0.7,0.4l-1.6,1c0,0,0,0-0.1,0c0,0,0,0,0,0
			C1821.6,295.2,1820.9,316.7,1840.5,341.9z"/>
		<path class="st24" d="M1815.2,357.3l11.5-7c-16-24.2-14.3-45.1-10.4-57.9c-0.6,0.5-1.2,1.1-1.8,1.7c0,0,0,0-0.1,0.1
			c-0.6,0.6-1.2,1.2-1.8,1.8C1806.5,310,1801.1,332.9,1815.2,357.3z"/>
	</g>
	<g>
		<path class="st22" d="M1822.2,606.9c-7.7,0-14.9-4.9-17.5-12.6c-3.3-9.7,1.9-20.2,11.6-23.4c118.9-40.2,112-133.1,111.6-137
			c-0.9-10,6.4-19,16.4-20.1c10-1.1,19.1,6.1,20.3,16.1c0,0.3,0.1,0.6,0.1,0.9c0.4,4.2,2.3,34.9-13.2,70.7
			c-14.5,33.5-47.6,78.8-123.5,104.4C1826.1,606.5,1824.1,606.9,1822.2,606.9z"/>
	</g>
	<g>
		<path class="st13" d="M2101.6,733.2c-3.8,0-7.6-0.9-11.1-2.7l-133.7-68.3c-9.7-5-15-15.8-12.9-26.5c17.9-91.9,95.7-139.5,99-141.4
			c11.6-7,26.7-3.2,33.6,8.4c6.9,11.6,3.2,26.6-8.4,33.6c-1,0.6-52.3,32.6-71.6,91.2l116.2,59.4c12,6.2,16.8,20.9,10.7,33
			C2119.2,728.3,2110.6,733.2,2101.6,733.2z"/>
	</g>
	<g>
		<path class="st25" d="M1857,532.8l-23.2-57.3c-1-2.4-3.8-3.5-6.1-2.3l-2,1c-2.1,1.1-3,3.6-2.1,5.8l25.2,56.3
			c1,2.3,3.8,3.3,6.1,2.1C1857,537.3,1857.9,534.9,1857,532.8z"/>
		<path class="st26" d="M1843.1,468.7l-3.5-9c-0.5-1.2-1.9-1.7-3-1.1l-20.7,11.2c-0.3,0.2-0.5,0.4-0.7,0.6l-1.5,2.1
			c-0.6,0.8-1.6,1.1-2.5,0.8l-1.5-0.5c-0.6-0.2-1.3-0.1-1.9,0.2l-3.3,2.1c-1,0.6-1.3,1.9-0.7,2.9l6.6,10.9c0.6,1,2,1.4,3,0.7
			l2.2-1.5c0.5-0.3,0.9-0.9,0.9-1.5l0.1-0.6c0.2-1.4,1.6-2.3,2.9-1.7v0c0.6,0.3,1.3,0.2,1.9-0.2l20.7-12.8
			C1843.1,470.8,1843.4,469.7,1843.1,468.7z"/>
		<path class="st27" d="M1841.2,464l-22.5,13.7l3.6,6l19.9-12.3c0.9-0.5,1.2-1.6,0.9-2.6L1841.2,464z"/>
		<path class="st28" d="M1804.5,475.2c-1,0.6-1.3,1.9-0.7,2.9l6.6,10.9c0.6,1,2,1.4,3,0.7l1.2-0.8l-8.3-14.8L1804.5,475.2z"/>
	</g>
</g>
<g>
	<g>
		<g>
			<path class="st20" d="M724.9,974.1c-12.6,0-26.6-3.4-41.8-10.3c-8.2-3.7-11.9-13.4-8.2-21.6c3.7-8.2,13.4-11.9,21.6-8.2
				c12.3,5.6,29.5,10.8,41.3,4.3c5.1-2.8,9.2-7.7,12.3-14.5c2.6-5.8,3.5-10.9,3.6-11.4c1.2-8.8,9.1-15.1,18-14.1c9,1,15.5,9,14.5,18
				c0,0.3-4,34.3-31.8,50.2C745.6,971.6,735.7,974.1,724.9,974.1z M753.7,912.5c0,0.2,0,0.3,0,0.3
				C753.7,912.7,753.7,912.6,753.7,912.5z"/>
		</g>
		<g>
			<path class="st21" d="M795.6,836.5c-8-1.4-16.1,1.6-21.5,7.8c-4.6,5.3-10.7,12.6-16.5,20.6c-14.1,19.5-10.2,46.6,8.6,61.6
				l94.9,75.1l40.2-54.2c11.3-15.2,9.2-36.5-4.8-49.3C871,875.1,829.7,842.4,795.6,836.5z"/>
			<path class="st13" d="M896.5,898.2l-77.2,70.3l41.8,33.1l40.2-54.2C912.7,932.2,910.6,910.9,896.5,898.2z"/>
			<path class="st22" d="M767.6,811.3l-15.8-24.4l-12.1,7.6l-8.8,5.5c0,0,0,0,0,0L672,837.3l19,27.3c14.7,21.2,43.8,26.4,65,11.7
				S782.3,832.4,767.6,811.3z"/>
			<path class="st20" d="M767.6,811.3l-15.8-24.4l-12.1,7.6l-8.8,5.5c0,0,0,0,0,0l-4.7,3l13.1,20.1c13.6,19.5,10.2,45.8-7.1,61.3
				c8.2-0.5,16.5-3.2,23.7-8.3C777.1,861.5,782.3,832.4,767.6,811.3z"/>
			<polygon class="st23" points="739.7,794.5 751.7,786.9 769.9,775.4 769.9,775.4 			"/>
			<path class="st23" d="M715.8,797.8c-1.8-2.1-2.7-4.6-2.8-7.1l-23.1,14c-17.3-22.3-16.8-41.3-15.8-47.9c0,0,0,0,0,0
				c-2.6,1.7-5,3.6-7.2,5.7c0.5-0.5,1-1,1.6-1.5c-3.5,11.3-5,29.8,9.2,51.2l-10.2,6.2c-12.4-21.5-7.7-41.8-2.2-54.2
				c0.5-0.5,1-1.1,1.5-1.6c-15.2,14.7-18.4,38.4-6.8,56.7l-11.3,7.6l11.9,17.7l11.4-7.2l58.9-37.2
				C726,803.1,719.6,802.2,715.8,797.8z"/>
			<path class="st23" d="M713,788.7c0.4-3.3,2.1-6.4,5.1-8.4l11.3-7.5c-16.6-20.1-36-22.4-45.8-22.1c0.4-0.2,0.8-0.5,1.2-0.7
				c10.3-1.7,35.1-3.1,54.1,16.4l15.8-10.6l0,0l-11,7.3l-2.7-3.1c-14.8-17-39.8-20.7-58.8-8.6l-6.8,4.3l0.6-0.4
				C683.9,757.9,700.1,765.7,713,788.7z"/>
			<path class="st24" d="M689.8,804.7l23.1-14c0.1,2.5,1,5,2.8,7.1c3.8,4.4,10.3,5.4,15.2,2.3c0,0,0,0,0,0l8.8-5.5l30.2-19.1h0
				l-15.2-19.6l0,0l-15.8,10.6c-19-19.5-43.7-18.1-54.1-16.4c-0.4,0.2-0.8,0.5-1.2,0.7c9.8-0.3,29.2,2,45.8,22.1l-11.3,7.5
				c-3,2-4.7,5.1-5.1,8.4c-12.9-23-29.1-30.8-36.9-33.2l-0.6,0.4l-1.4,0.9c0,0,0,0-0.1,0c0,0,0,0,0,0
				C673.1,763.5,672.5,782.4,689.8,804.7z"/>
			<path class="st24" d="M667.4,818.3l10.2-6.2c-14.2-21.4-12.6-39.9-9.2-51.2c-0.5,0.5-1.1,1-1.6,1.5c0,0,0,0-0.1,0.1
				c-0.5,0.5-1,1-1.5,1.6C659.8,776.5,655,796.8,667.4,818.3z"/>
		</g>
		<g>
			<path class="st22" d="M673.6,1038.9c-6.8,0-13.2-4.3-15.5-11.1c-2.9-8.6,1.7-17.8,10.3-20.7c105.1-35.5,99-117.6,98.7-121.1
				c-0.8-8.9,5.7-16.8,14.5-17.8c8.9-1,16.9,5.4,18,14.2c0,0.3,0.1,0.5,0.1,0.8c0.3,3.8,2,30.9-11.6,62.5
				c-12.8,29.6-42.1,69.7-109.1,92.3C677.1,1038.7,675.4,1038.9,673.6,1038.9z"/>
		</g>
		<g>
			<path class="st25" d="M704.4,973.4l-20.5-50.6c-0.9-2.1-3.3-3.1-5.4-2l-1.8,0.9c-1.9,0.9-2.7,3.2-1.8,5.1l22.3,49.7
				c0.9,2.1,3.4,2.9,5.4,1.9C704.4,977.5,705.2,975.3,704.4,973.4z"/>
			<path class="st26" d="M692.1,916.9l-3.1-7.9c-0.4-1.1-1.7-1.5-2.7-1l-18.3,9.9c-0.3,0.1-0.5,0.3-0.6,0.6l-1.3,1.9
				c-0.5,0.7-1.4,1-2.2,0.7l-1.3-0.5c-0.6-0.2-1.2-0.1-1.7,0.2l-2.9,1.8c-0.9,0.6-1.1,1.7-0.6,2.6l5.8,9.7c0.6,0.9,1.8,1.2,2.7,0.6
				l2-1.3c0.5-0.3,0.8-0.8,0.8-1.4l0.1-0.6c0.1-1.2,1.4-2,2.6-1.5l0,0c0.6,0.2,1.2,0.2,1.7-0.1l18.3-11.3
				C692.1,918.7,692.4,917.7,692.1,916.9z"/>
			<path class="st27" d="M690.4,912.6l-19.9,12.1l3.2,5.3l17.6-10.9c0.8-0.5,1.1-1.4,0.8-2.3L690.4,912.6z"/>
			<path class="st28" d="M658,922.5c-0.9,0.6-1.1,1.7-0.6,2.6l5.8,9.7c0.6,0.9,1.8,1.2,2.7,0.6l1.1-0.7l-7.3-13.1L658,922.5z"/>
		</g>
	</g>
	<path class="st13" d="M828.9,959.8c0,0-76.8,86.9-61.4,243.9c1.1,11.2,10.5,19.8,21.8,19.8c11.5,0,21.1-8.9,21.9-20.4
		c3.1-45.1,14.1-153.3,50-201.5C867.2,993.5,828.9,959.8,828.9,959.8z"/>
</g>
<g>
	<g>
		<g>
			<path class="st20" d="M1237.3,1367.5c-10.5-7-20.3-17.6-29.1-31.7c-4.8-7.7-2.5-17.7,5.2-22.5c7.7-4.8,17.7-2.5,22.5,5.2
				c7.2,11.4,18.6,25.3,32,26.5c5.8,0.5,11.9-1.3,18.3-5.2c5.4-3.4,8.9-7.2,9.3-7.5c5.8-6.7,16-7.5,22.8-1.8
				c6.9,5.8,7.9,16.1,2.1,23c-0.2,0.3-22.4,26.3-54.3,24.2C1255.9,1376.9,1246.3,1373.5,1237.3,1367.5z M1295.4,1332.2
				c-0.1,0.1-0.2,0.2-0.2,0.2C1295.3,1332.3,1295.4,1332.2,1295.4,1332.2z"/>
		</g>
		
			<rect x="1036.3" y="1273.2" transform="matrix(0.9596 -0.2812 0.2812 0.9596 -312.271 414.6635)" class="st2" width="504.9" height="44.4"/>
		<g>
			<path class="st21" d="M1372.4,1292.1c-5.9-5.6-14.3-7.6-22.2-5.4c-6.8,1.9-15.9,4.6-25.1,8c-22.5,8.4-34.4,33.2-26.9,56
				l37.4,115.1l63.5-22.8c17.8-6.4,27.9-25.3,23.3-43.7C1413.8,1366,1397.6,1315.9,1372.4,1292.1z"/>
			<g>
				<path class="st5" d="M1421.3,1657c7.8,2.7,16.7,0.4,22.1-6.4c6.7-8.6,5.2-21-3.4-27.7c-105.2-82.4-65.4-173.3-63.6-177.1
					c4.5-9.8,0.3-21.4-9.4-26c-9.7-4.6-21.3-0.6-26.1,9c-0.1,0.3-0.3,0.6-0.4,0.8c-1.9,4.1-14.7,34.3-11.8,75.7
					c2.7,38.8,19.9,96,87.1,148.6C1417.4,1655.3,1419.3,1656.3,1421.3,1657z"/>
			</g>
			<path class="st13" d="M1422.3,1399.4l-103.2,15.8l16.5,50.7l63.5-22.8C1416.9,1436.6,1427,1417.7,1422.3,1399.4z"/>
			<path class="st22" d="M1363.1,1255.6l0.3-29.1l-14.3-0.3l-10.4-0.2c0,0,0,0,0,0l-69.7-1.7l0.7,33.3c0.5,25.8,21.8,46.2,47.6,45.7
				C1343.1,1302.7,1363.6,1281.4,1363.1,1255.6z"/>
			<path class="st20" d="M1363.1,1255.6l0.3-29.1l-14.3-0.3l-10.4-0.2c0,0,0,0,0,0l-5.6-0.1l-0.3,24c0.5,23.8-16.9,43.8-39.9,47.1
				c7.1,4.1,15.5,6.5,24.4,6.3C1343.1,1302.7,1363.6,1281.4,1363.1,1255.6z"/>
			<polygon class="st23" points="1349.1,1226.2 1363.4,1226.5 1384.9,1227 1384.9,1227 			"/>
			<path class="st23" d="M1327.4,1215.6c-0.3-2.7,0.3-5.3,1.6-7.4l-27-1.1c-2.1-28.2,8.9-43.6,13.4-48.7c0,0,0,0,0,0
				c-3.1-0.1-6.2,0.2-9.1,0.7c0.7-0.1,1.4-0.2,2.1-0.3c-9.1,7.5-20.6,22-20.7,47.7l-11.9-0.5c1.6-24.8,16.8-39.1,28.2-46.4
				c0.7-0.2,1.4-0.3,2.2-0.5c-20.8,3.8-36.6,21.8-37.1,43.5l-13.6,0l0.1,21.3l13.5,0.3l69.7,1.7
				C1333,1225.8,1328.1,1221.4,1327.4,1215.6z"/>
			<path class="st23" d="M1330.1,1206.5c2.1-2.5,5.3-4.1,8.9-4.1l13.5,0c-2.7-25.9-17.5-38.6-25.9-43.7c0.5,0,0.9,0.1,1.4,0.1
				c9.5,4.3,30.9,16.9,35.9,43.6l19,0l0,0l-13.2,0l-0.5-4c-2.8-22.4-21.6-39.3-44.2-39.7l-8.1-0.2l0.7,0
				C1323,1164.8,1332.2,1180.2,1330.1,1206.5z"/>
			<path class="st24" d="M1302,1207.1l27,1.1c-1.3,2.2-1.9,4.7-1.6,7.4c0.7,5.8,5.6,10.1,11.4,10.3c0,0,0,0,0,0l10.4,0.2l35.7,0.9h0
				l-1.8-24.7l0,0l-19,0c-5-26.7-26.4-39.3-35.9-43.6c-0.5,0-0.9-0.1-1.4-0.1c8.4,5.2,23.2,17.9,25.9,43.7l-13.5,0
				c-3.6,0-6.8,1.6-8.9,4.1c2-26.3-7.2-41.7-12.3-48.1l-0.7,0l-1.6,0c0,0,0,0-0.1,0c0,0,0,0,0,0
				C1310.9,1163.4,1299.9,1178.9,1302,1207.1z"/>
			<path class="st24" d="M1275.8,1206l11.9,0.5c0-25.7,11.5-40.2,20.7-47.7c-0.7,0.1-1.4,0.2-2.1,0.3c0,0,0,0-0.1,0
				c-0.7,0.1-1.4,0.3-2.2,0.5C1292.6,1166.9,1277.4,1181.2,1275.8,1206z"/>
		</g>
		<g>
			<path class="st22" d="M1379.8,1510.2c-4.5,5.1-11.9,7.1-18.6,4.3c-8.3-3.5-12.3-13.1-8.8-21.4c42.7-102.4-23-152-25.8-154
				c-7.2-5.3-8.9-15.3-3.7-22.6c5.1-7.3,15.2-9.1,22.6-4.1c0.2,0.1,0.4,0.3,0.6,0.4c3,2.2,24.5,18.9,39.3,50
				c13.8,29.2,24.5,77.6-2.8,142.9C1381.9,1507.4,1380.9,1508.9,1379.8,1510.2z"/>
		</g>
		<g>
			<path class="st13" d="M1284.2,1671c5.4,6.2,14.4,8.5,22.4,5.2c10-4.2,14.8-15.7,10.6-25.8c-51.5-123.4,27.7-183.2,31.1-185.6
				c8.7-6.3,10.7-18.5,4.5-27.3c-6.2-8.8-18.3-11-27.2-5c-0.3,0.2-0.5,0.4-0.8,0.5c-3.7,2.7-29.6,22.8-47.3,60.3
				c-16.6,35.1-29.5,93.5,3.3,172.2C1281.7,1667.6,1282.8,1669.4,1284.2,1671z"/>
		</g>
	</g>
</g>
</svg>
