<?xml version="1.0" encoding="utf-8"?>
<!-- Generator: Adobe Illustrator 19.0.0, SVG Export Plug-In . SVG Version: 6.00 Build 0)  -->
<svg version="1.1" id="Layer_1" xmlns="http://www.w3.org/2000/svg" xmlns:xlink="http://www.w3.org/1999/xlink" x="0px" y="0px"
	 width="595.3px" height="841.9px" viewBox="0 0 595.3 841.9" style="enable-background:new 0 0 595.3 841.9;" xml:space="preserve"
	>
<style type="text/css">
	.st0{clip-path:url(#XMLID_480_);}
	.st1{fill:#12485B;}
	.st2{fill:#EFE7D8;}
	.st3{fill:#C1AD9F;}
	.st4{fill:#56473B;}
	.st5{opacity:0.3;}
	.st6{fill:#C9CACC;}
	.st7{fill:#B2B2B2;}
	.st8{fill:#FFFFFF;}
	.st9{fill:#8E8E8E;}
	.st10{fill:#CC7D64;}
	.st11{fill:#4F200B;}
	.st12{fill:#ED1C24;}
	.st13{fill:#B21420;}
	.st14{fill:#1C75BC;}
	.st15{fill:#08447A;}
	.st16{fill:#27AAE1;}
	.st17{fill:#FBB040;}
	.st18{fill:#FCAE86;}
	.st19{fill:#FCD5C5;}
	.st20{fill:url(#XMLID_482_);}
	.st21{fill:#AF0E48;}
	.st22{fill:#E24786;}
	.st23{fill:#C2B59B;}
	.st24{fill:#9B8579;}
	.st25{fill:#AFE1F2;}
	.st26{fill:#1066A0;}
	.st27{fill:#A5967C;}
	.st28{fill:#594A42;}
	.st29{fill:#E5D9C6;}
	.st30{fill:#F2EBE2;}
	.st31{fill:#726658;}
	.st32{fill:#3C2415;}
	.st33{fill:#72625B;}
	.st34{fill:#57B5B2;}
	.st35{fill:#7BD6D1;}
	.st36{fill:#144051;}
	.st37{fill:#2A777F;}
	.st38{fill:#082233;}
	.st39{fill:#F95F6A;}
</style>
<g id="XMLID_481_">
	<defs>
		<rect id="XMLID_478_" width="595.3" height="841.9"/>
	</defs>
	<clipPath id="XMLID_480_">
		<use xlink:href="#XMLID_478_"  style="overflow:visible;"/>
	</clipPath>
	<g id="XMLID_172_" class="st0">
		<rect id="XMLID_144_" class="st1" width="595.3" height="841.9"/>
		<rect id="XMLID_160_" y="673" class="st2" width="595.3" height="168.9"/>
		<rect id="XMLID_166_" y="654.5" class="st3" width="595.3" height="18.6"/>
		<rect id="XMLID_171_" y="650.2" class="st4" width="595.3" height="4.3"/>
		<g id="XMLID_159_" class="st5">
			<g id="XMLID_220_">
				<rect id="XMLID_254_" x="-17.4" y="353.7" class="st6" width="628.6" height="17.5"/>
				<rect id="XMLID_251_" x="-17.4" y="365" class="st7" width="628.6" height="6.3"/>
				<g id="XMLID_249_">
					<path id="XMLID_250_" class="st8" d="M388.1,358.3c0-0.6,0.5-1.2,1.2-1.2h164.2c0.6,0,1.2,0.5,1.2,1.2s-0.5,1.2-1.2,1.2
						l-164.2,0C388.6,359.5,388.1,359,388.1,358.3z"/>
				</g>
				<g id="XMLID_247_">
					<path id="XMLID_248_" class="st8" d="M351.8,359.5c0.2,0,0.4-0.5,0.4-1.2c0-0.6-0.2-1.2-0.4-1.2h-56c-0.6,0-1.2,0.5-1.2,1.2
						l0,0c0,0.6,0.5,1.2,1.2,1.2H351.8z"/>
				</g>
				<g id="XMLID_245_">
					<path id="XMLID_246_" class="st8" d="M255.1,359.5c0.2,0,0.4-0.5,0.4-1.2c0-0.6-0.2-1.2-0.4-1.2l-56,0c-0.6,0-1.2,0.5-1.2,1.2
						l0,0c0,0.6,0.5,1.2,1.2,1.2H255.1z"/>
				</g>
				<g id="XMLID_237_">
					<path id="XMLID_242_" class="st7" d="M377.1,353.9v17.2c0,2.3-1.9,4.2-4.2,4.2h-3.6c-2.3,0-4.2-1.9-4.2-4.2v-17.2
						c0-2.3,1.9-4.2,4.2-4.2h3.6C375.3,349.7,377.1,351.6,377.1,353.9z"/>
					<path id="XMLID_241_" class="st8" d="M373.3,349.7c0,0,0.1,0,0.3,0c0.2,0,0.5,0,0.9,0.1c0.4,0.1,0.8,0.3,1.3,0.6
						c0.5,0.3,0.9,0.8,1.3,1.5c0.4,0.7,0.6,1.5,0.6,2.4c0,0.8,0.1,1.7,0.1,2.6c0,0.9,0,1.8,0.1,2.8c0,0.9,0,1.9,0,2.9
						c0,1,0,1.9,0,2.9c0,0.9,0,1.9,0,2.8c0,0.9,0,1.8-0.1,2.6c0,0.3,0,0.4-0.1,0.7c0,0.2-0.1,0.5-0.1,0.7c-0.1,0.4-0.3,0.8-0.4,1.1
						c-0.4,0.7-0.8,1.1-1.3,1.5c-0.5,0.3-0.9,0.5-1.3,0.6c-0.4,0.1-0.7,0.1-0.9,0.1c-0.2,0-0.3,0-0.3,0s0.1,0,0.3-0.1
						c0.2,0,0.5-0.1,0.8-0.3c0.3-0.2,0.7-0.4,1.1-0.8c0.4-0.4,0.7-0.8,1-1.4c0.1-0.3,0.2-0.6,0.3-1c0-0.2,0.1-0.3,0.1-0.5
						c0-0.1,0-0.4,0-0.6c0-0.8-0.1-1.7-0.1-2.6c0-0.9,0-1.8,0-2.8c0-0.9,0-1.9,0-2.9c0-1,0-1.9,0-2.9c0-0.9,0-1.9,0.1-2.8
						c0-0.9,0.1-1.8,0.1-2.6c0-0.7-0.1-1.4-0.4-2c-0.3-0.6-0.6-1.1-1-1.4c-0.4-0.4-0.7-0.6-1.1-0.8c-0.3-0.1-0.6-0.2-0.8-0.3
						C373.4,349.7,373.3,349.7,373.3,349.7z"/>
					<path id="XMLID_238_" class="st9" d="M368.8,349.7c-2,0.1-3.7,2.1-3.7,4.5v16.5c0,2.4,1.6,4.4,3.7,4.5V349.7z"/>
				</g>
				<g id="XMLID_229_">
					<path id="XMLID_234_" class="st7" d="M282.5,353.9v17.2c0,2.3-1.9,4.2-4.2,4.2h-3.6c-2.3,0-4.2-1.9-4.2-4.2v-17.2
						c0-2.3,1.9-4.2,4.2-4.2h3.6C280.7,349.7,282.5,351.6,282.5,353.9z"/>
					<path id="XMLID_233_" class="st8" d="M278.7,349.7c0,0,0.1,0,0.3,0c0.2,0,0.5,0,0.9,0.1c0.4,0.1,0.8,0.3,1.3,0.6
						c0.5,0.3,0.9,0.8,1.3,1.5c0.4,0.7,0.6,1.5,0.6,2.4c0,0.8,0.1,1.7,0.1,2.6c0,0.9,0,1.8,0.1,2.8c0,0.9,0,1.9,0,2.9
						c0,1,0,1.9,0,2.9c0,0.9,0,1.9,0,2.8c0,0.9,0,1.8-0.1,2.6c0,0.3,0,0.4-0.1,0.7c0,0.2-0.1,0.5-0.1,0.7c-0.1,0.4-0.3,0.8-0.4,1.1
						c-0.4,0.7-0.8,1.1-1.3,1.5c-0.5,0.3-0.9,0.5-1.3,0.6c-0.4,0.1-0.7,0.1-0.9,0.1c-0.2,0-0.3,0-0.3,0s0.1,0,0.3-0.1
						c0.2,0,0.5-0.1,0.8-0.3c0.3-0.2,0.7-0.4,1.1-0.8c0.4-0.4,0.7-0.8,1-1.4c0.1-0.3,0.2-0.6,0.3-1c0-0.2,0.1-0.3,0.1-0.5
						c0-0.1,0-0.4,0-0.6c0-0.8-0.1-1.7-0.1-2.6c0-0.9,0-1.8,0-2.8c0-0.9,0-1.9,0-2.9c0-1,0-1.9,0-2.9c0-0.9,0-1.9,0.1-2.8
						c0-0.9,0.1-1.8,0.1-2.6c0-0.7-0.1-1.4-0.4-2c-0.3-0.6-0.6-1.1-1-1.4c-0.4-0.4-0.7-0.6-1.1-0.8c-0.3-0.1-0.6-0.2-0.8-0.3
						C278.8,349.7,278.7,349.7,278.7,349.7z"/>
					<path id="XMLID_230_" class="st9" d="M274.2,349.7c-2,0.1-3.7,2.1-3.7,4.5v16.5c0,2.4,1.6,4.4,3.7,4.5V349.7z"/>
				</g>
				<g id="XMLID_221_">
					<path id="XMLID_226_" class="st7" d="M170.1,353.9v17.2c0,2.3-1.9,4.2-4.2,4.2h-3.6c-2.3,0-4.2-1.9-4.2-4.2v-17.2
						c0-2.3,1.9-4.2,4.2-4.2h3.6C168.2,349.7,170.1,351.6,170.1,353.9z"/>
					<path id="XMLID_225_" class="st8" d="M166.2,349.7c0,0,0.1,0,0.3,0c0.2,0,0.5,0,0.9,0.1c0.4,0.1,0.8,0.3,1.3,0.6
						c0.5,0.3,0.9,0.8,1.3,1.5c0.4,0.7,0.6,1.5,0.6,2.4c0,0.8,0.1,1.7,0.1,2.6c0,0.9,0,1.8,0.1,2.8c0,0.9,0,1.9,0,2.9
						c0,1,0,1.9,0,2.9c0,0.9,0,1.9,0,2.8c0,0.9,0,1.8-0.1,2.6c0,0.3,0,0.4-0.1,0.7c0,0.2-0.1,0.5-0.1,0.7c-0.1,0.4-0.3,0.8-0.4,1.1
						c-0.4,0.7-0.8,1.1-1.3,1.5c-0.5,0.3-0.9,0.5-1.3,0.6c-0.4,0.1-0.7,0.1-0.9,0.1c-0.2,0-0.3,0-0.3,0s0.1,0,0.3-0.1
						c0.2,0,0.5-0.1,0.8-0.3c0.3-0.2,0.7-0.4,1.1-0.8c0.4-0.4,0.7-0.8,1-1.4c0.1-0.3,0.2-0.6,0.3-1c0-0.2,0.1-0.3,0.1-0.5
						c0-0.1,0-0.4,0-0.6c0-0.8-0.1-1.7-0.1-2.6c0-0.9,0-1.8,0-2.8c0-0.9,0-1.9,0-2.9c0-1,0-1.9,0-2.9c0-0.9,0-1.9,0.1-2.8
						c0-0.9,0.1-1.8,0.1-2.6c0-0.7-0.1-1.4-0.4-2c-0.3-0.6-0.6-1.1-1-1.4c-0.4-0.4-0.7-0.6-1.1-0.8c-0.3-0.1-0.6-0.2-0.8-0.3
						C166.3,349.7,166.2,349.7,166.2,349.7z"/>
					<path id="XMLID_222_" class="st9" d="M161.8,349.7c-2,0.1-3.7,2.1-3.7,4.5v16.5c0,2.4,1.6,4.4,3.7,4.5V349.7z"/>
				</g>
			</g>
			<g id="XMLID_255_">
				<rect id="XMLID_290_" x="-21.5" y="427.8" class="st6" width="628.6" height="17.5"/>
				<rect id="XMLID_287_" x="-21.5" y="439" class="st7" width="628.6" height="6.3"/>
				<g id="XMLID_284_">
					<path id="XMLID_285_" class="st8" d="M384,432.3c0-0.6,0.5-1.2,1.2-1.2h164.2c0.6,0,1.2,0.5,1.2,1.2c0,0.6-0.5,1.2-1.2,1.2
						l-164.2,0C384.5,433.5,384,433,384,432.3z"/>
				</g>
				<g id="XMLID_282_">
					<path id="XMLID_283_" class="st8" d="M347.6,433.5c0.2,0,0.4-0.5,0.4-1.2c0-0.6-0.2-1.2-0.4-1.2l-56,0c-0.6,0-1.2,0.5-1.2,1.2
						l0,0c0,0.6,0.5,1.2,1.2,1.2H347.6z"/>
				</g>
				<g id="XMLID_280_">
					<path id="XMLID_281_" class="st8" d="M251,433.5c0.2,0,0.4-0.5,0.4-1.2s-0.2-1.2-0.4-1.2h-56c-0.6,0-1.2,0.5-1.2,1.2l0,0
						c0,0.6,0.5,1.2,1.2,1.2L251,433.5z"/>
				</g>
				<g id="XMLID_272_">
					<path id="XMLID_277_" class="st7" d="M373,427.9v17.2c0,2.3-1.9,4.2-4.2,4.2h-3.6c-2.3,0-4.2-1.9-4.2-4.2v-17.2
						c0-2.3,1.9-4.2,4.2-4.2h3.6C371.1,423.7,373,425.6,373,427.9z"/>
					<path id="XMLID_276_" class="st8" d="M369.1,423.7c0,0,0.1,0,0.3,0c0.2,0,0.5,0,0.9,0.1c0.4,0.1,0.8,0.3,1.3,0.6
						c0.5,0.3,0.9,0.8,1.3,1.5c0.4,0.7,0.6,1.5,0.6,2.4c0,0.8,0.1,1.7,0.1,2.6c0,0.9,0,1.8,0.1,2.8c0,0.9,0,1.9,0,2.9
						c0,1,0,1.9,0,2.9c0,0.9,0,1.9,0,2.8c0,0.9,0,1.8-0.1,2.6c0,0.3,0,0.4-0.1,0.7c0,0.2-0.1,0.5-0.1,0.7c-0.1,0.4-0.3,0.8-0.4,1.1
						c-0.4,0.7-0.8,1.1-1.3,1.5c-0.5,0.3-0.9,0.5-1.3,0.6c-0.4,0.1-0.7,0.1-0.9,0.1c-0.2,0-0.3,0-0.3,0s0.1,0,0.3-0.1
						c0.2,0,0.5-0.1,0.8-0.3c0.3-0.2,0.7-0.4,1.1-0.8c0.4-0.4,0.7-0.8,1-1.4c0.1-0.3,0.2-0.6,0.3-1c0-0.2,0.1-0.3,0.1-0.5
						c0-0.1,0-0.4,0-0.6c0-0.8-0.1-1.7-0.1-2.6c0-0.9,0-1.8,0-2.8c0-0.9,0-1.9,0-2.9c0-1,0-1.9,0-2.9c0-0.9,0-1.9,0.1-2.8
						c0-0.9,0.1-1.8,0.1-2.6c0-0.7-0.1-1.4-0.4-2c-0.3-0.6-0.6-1.1-1-1.4c-0.4-0.4-0.7-0.6-1.1-0.8c-0.3-0.1-0.6-0.2-0.8-0.3
						C369.2,423.7,369.1,423.7,369.1,423.7z"/>
					<path id="XMLID_273_" class="st9" d="M364.7,423.7c-2,0.1-3.7,2.1-3.7,4.5v16.5c0,2.4,1.6,4.4,3.7,4.5V423.7z"/>
				</g>
				<g id="XMLID_264_">
					<path id="XMLID_269_" class="st7" d="M278.4,427.9v17.2c0,2.3-1.9,4.2-4.2,4.2h-3.6c-2.3,0-4.2-1.9-4.2-4.2v-17.2
						c0-2.3,1.9-4.2,4.2-4.2h3.6C276.5,423.7,278.4,425.6,278.4,427.9z"/>
					<path id="XMLID_268_" class="st8" d="M274.5,423.7c0,0,0.1,0,0.3,0c0.2,0,0.5,0,0.9,0.1c0.4,0.1,0.8,0.3,1.3,0.6
						c0.5,0.3,0.9,0.8,1.3,1.5c0.4,0.7,0.6,1.5,0.6,2.4c0,0.8,0.1,1.7,0.1,2.6c0,0.9,0,1.8,0.1,2.8c0,0.9,0,1.9,0,2.9
						c0,1,0,1.9,0,2.9c0,0.9,0,1.9,0,2.8c0,0.9,0,1.8-0.1,2.6c0,0.3,0,0.4-0.1,0.7c0,0.2-0.1,0.5-0.1,0.7c-0.1,0.4-0.3,0.8-0.4,1.1
						c-0.4,0.7-0.8,1.1-1.3,1.5c-0.5,0.3-0.9,0.5-1.3,0.6c-0.4,0.1-0.7,0.1-0.9,0.1c-0.2,0-0.3,0-0.3,0s0.1,0,0.3-0.1
						c0.2,0,0.5-0.1,0.8-0.3c0.3-0.2,0.7-0.4,1.1-0.8c0.4-0.4,0.7-0.8,1-1.4c0.1-0.3,0.2-0.6,0.3-1c0-0.2,0.1-0.3,0.1-0.5
						c0-0.1,0-0.4,0-0.6c0-0.8-0.1-1.7-0.1-2.6c0-0.9,0-1.8,0-2.8c0-0.9,0-1.9,0-2.9c0-1,0-1.9,0-2.9c0-0.9,0-1.9,0.1-2.8
						c0-0.9,0.1-1.8,0.1-2.6c0-0.7-0.1-1.4-0.4-2c-0.3-0.6-0.6-1.1-1-1.4c-0.4-0.4-0.7-0.6-1.1-0.8c-0.3-0.1-0.6-0.2-0.8-0.3
						C274.6,423.7,274.5,423.7,274.5,423.7z"/>
					<path id="XMLID_265_" class="st9" d="M270.1,423.7c-2,0.1-3.7,2.1-3.7,4.5v16.5c0,2.4,1.6,4.4,3.7,4.5V423.7z"/>
				</g>
				<g id="XMLID_256_">
					<path id="XMLID_261_" class="st7" d="M166,427.9v17.2c0,2.3-1.9,4.2-4.2,4.2h-3.6c-2.3,0-4.2-1.9-4.2-4.2v-17.2
						c0-2.3,1.9-4.2,4.2-4.2h3.6C164.1,423.7,166,425.6,166,427.9z"/>
					<path id="XMLID_260_" class="st8" d="M162.1,423.7c0,0,0.1,0,0.3,0c0.2,0,0.5,0,0.9,0.1c0.4,0.1,0.8,0.3,1.3,0.6
						c0.5,0.3,0.9,0.8,1.3,1.5c0.4,0.7,0.6,1.5,0.6,2.4c0,0.8,0.1,1.7,0.1,2.6c0,0.9,0,1.8,0.1,2.8c0,0.9,0,1.9,0,2.9
						c0,1,0,1.9,0,2.9c0,0.9,0,1.9,0,2.8c0,0.9,0,1.8-0.1,2.6c0,0.3,0,0.4-0.1,0.7c0,0.2-0.1,0.5-0.1,0.7c-0.1,0.4-0.3,0.8-0.4,1.1
						c-0.4,0.7-0.8,1.1-1.3,1.5c-0.5,0.3-0.9,0.5-1.3,0.6c-0.4,0.1-0.7,0.1-0.9,0.1c-0.2,0-0.3,0-0.3,0s0.1,0,0.3-0.1
						c0.2,0,0.5-0.1,0.8-0.3c0.3-0.2,0.7-0.4,1.1-0.8c0.4-0.4,0.7-0.8,1-1.4c0.1-0.3,0.2-0.6,0.3-1c0-0.2,0.1-0.3,0.1-0.5
						c0-0.1,0-0.4,0-0.6c0-0.8-0.1-1.7-0.1-2.6c0-0.9,0-1.8,0-2.8c0-0.9,0-1.9,0-2.9c0-1,0-1.9,0-2.9c0-0.9,0-1.9,0.1-2.8
						c0-0.9,0.1-1.8,0.1-2.6c0-0.7-0.1-1.4-0.4-2c-0.3-0.6-0.6-1.1-1-1.4c-0.4-0.4-0.7-0.6-1.1-0.8c-0.3-0.1-0.6-0.2-0.8-0.3
						C162.2,423.7,162.1,423.7,162.1,423.7z"/>
					<path id="XMLID_257_" class="st9" d="M157.6,423.7c-2,0.1-3.7,2.1-3.7,4.5v16.5c0,2.4,1.6,4.4,3.7,4.5V423.7z"/>
				</g>
			</g>
			<g id="XMLID_162_">
				<g id="XMLID_195_">
					<path id="XMLID_196_" class="st6" d="M-49.2,411.9v-17.5l540.5,0c22.7,0,41.1,18.5,41.1,41.1v50.8c0,13,10.6,23.6,23.6,23.6
						h56.7v17.5h-56.7c-22.7,0-41.1-18.5-41.1-41.1v-50.8c0-13-10.6-23.6-23.6-23.6L-49.2,411.9z"/>
				</g>
				<g id="XMLID_187_">
					<path id="XMLID_189_" class="st7" d="M612.8,518.7h-56.7c-17.9,0-32.4-14.5-32.4-32.4v-50.8c0-17.9-14.5-32.4-32.4-32.4
						l-540.5,0v8.8l540.5,0c13,0,23.6,10.6,23.6,23.6v50.8c0,22.7,18.5,41.1,41.1,41.1h56.7V518.7z"/>
				</g>
				<g id="XMLID_167_">
					<g id="XMLID_185_">
						<path id="XMLID_186_" class="st8" d="M158.7,399c0-0.6,0.5-1.2,1.2-1.2l109.4,0c0.6,0,1.2,0.5,1.2,1.2c0,0.6-0.5,1.2-1.2,1.2
							H159.9C159.2,400.2,158.7,399.7,158.7,399z"/>
					</g>
					<g id="XMLID_183_">
						<path id="XMLID_184_" class="st8" d="M355.5,399c0-0.6,0.5-1.2,1.2-1.2h49.6c0.6,0,1.2,0.5,1.2,1.2c0,0.6-0.5,1.2-1.2,1.2
							h-49.6C356,400.2,355.5,399.7,355.5,399z"/>
					</g>
					<g id="XMLID_179_">
						<path id="XMLID_180_" class="st8" d="M489.9,398.3c0-0.7,0.6-1.3,1.3-1.3c21,0,38.2,17.1,38.2,38.2c0,0.7-0.6,1.3-1.3,1.3
							s-1.3-0.6-1.3-1.3c0-19.6-15.9-35.5-35.5-35.5C490.5,399.7,489.9,399.1,489.9,398.3z"/>
					</g>
					<g id="XMLID_168_">
						<path id="XMLID_169_" class="st8" d="M528.2,489.3c0-0.5,0.4-0.9,0.9-0.9c0.5,0,0.9,0.4,0.9,0.9c0,12.8,10.4,23.2,23.2,23.2
							c0.5,0,0.9,0.4,0.9,0.9c0,0.5-0.4,0.9-0.9,0.9C539.4,514.2,528.2,503,528.2,489.3z"/>
					</g>
				</g>
				<g id="XMLID_155_">
					<path id="XMLID_164_" class="st7" d="M426.5,394.5v17.2c0,2.3-1.9,4.2-4.2,4.2h-3.6c-2.3,0-4.2-1.9-4.2-4.2v-17.2
						c0-2.3,1.9-4.2,4.2-4.2h3.6C424.7,390.3,426.5,392.2,426.5,394.5z"/>
					<path id="XMLID_161_" class="st8" d="M422.7,390.3c0,0,0.1,0,0.3,0c0.2,0,0.5,0,0.9,0.1c0.4,0.1,0.8,0.3,1.3,0.6
						c0.5,0.3,0.9,0.8,1.3,1.5c0.4,0.7,0.6,1.5,0.6,2.4c0,0.8,0.1,1.7,0.1,2.6c0,0.9,0,1.8,0.1,2.8c0,0.9,0,1.9,0,2.9
						c0,1,0,1.9,0,2.9c0,0.9,0,1.9,0,2.8c0,0.9,0,1.8-0.1,2.6c0,0.3,0,0.4-0.1,0.7c0,0.2-0.1,0.5-0.1,0.7c-0.1,0.4-0.3,0.8-0.4,1.1
						c-0.4,0.7-0.8,1.1-1.3,1.5c-0.5,0.3-0.9,0.5-1.3,0.6c-0.4,0.1-0.7,0.1-0.9,0.1c-0.2,0-0.3,0-0.3,0s0.1,0,0.3-0.1
						c0.2,0,0.5-0.1,0.8-0.3c0.3-0.2,0.7-0.4,1.1-0.8c0.4-0.4,0.7-0.8,1-1.4c0.1-0.3,0.2-0.6,0.3-1c0-0.2,0.1-0.3,0.1-0.5
						c0-0.1,0-0.4,0-0.6c0-0.8-0.1-1.7-0.1-2.6c0-0.9,0-1.8,0-2.8c0-0.9,0-1.9,0-2.9c0-1,0-1.9,0-2.9c0-0.9,0-1.9,0.1-2.8
						c0-0.9,0.1-1.8,0.1-2.6c0-0.7-0.1-1.4-0.4-2c-0.3-0.6-0.6-1.1-1-1.4c-0.4-0.4-0.7-0.6-1.1-0.8c-0.3-0.1-0.6-0.2-0.8-0.3
						C422.8,390.3,422.7,390.3,422.7,390.3z"/>
					<path id="XMLID_158_" class="st9" d="M418.2,390.3c-2,0.1-3.7,2.1-3.7,4.5v16.5c0,2.4,1.6,4.4,3.7,4.5V390.3z"/>
				</g>
				<g id="XMLID_177_">
					<path id="XMLID_182_" class="st7" d="M532.6,464.5h-17.2c-2.3,0-4.2-1.9-4.2-4.2v-3.6c0-2.3,1.9-4.2,4.2-4.2h17.2
						c2.3,0,4.2,1.9,4.2,4.2v3.6C536.8,462.6,534.9,464.5,532.6,464.5z"/>
					<path id="XMLID_181_" class="st8" d="M536.8,460.6c0,0,0,0.1,0,0.3c0,0.2,0,0.5-0.1,0.9c-0.1,0.4-0.3,0.8-0.6,1.3
						c-0.3,0.5-0.8,0.9-1.5,1.3c-0.7,0.4-1.5,0.6-2.4,0.6c-0.8,0-1.7,0.1-2.6,0.1c-0.9,0-1.8,0-2.8,0.1c-0.9,0-1.9,0-2.9,0
						c-1,0-1.9,0-2.9,0c-0.9,0-1.9,0-2.8,0c-0.9,0-1.8,0-2.6-0.1c-0.3,0-0.4,0-0.7-0.1c-0.2,0-0.5-0.1-0.7-0.1
						c-0.4-0.1-0.8-0.3-1.1-0.4c-0.7-0.4-1.1-0.8-1.5-1.3c-0.3-0.5-0.5-0.9-0.6-1.3c-0.1-0.4-0.1-0.7-0.1-0.9c0-0.2,0-0.3,0-0.3
						s0,0.1,0.1,0.3c0,0.2,0.1,0.5,0.3,0.8c0.2,0.3,0.4,0.7,0.8,1.1c0.4,0.4,0.8,0.7,1.4,1c0.3,0.1,0.6,0.2,1,0.3
						c0.2,0,0.3,0.1,0.5,0.1c0.1,0,0.4,0,0.6,0c0.8,0,1.7-0.1,2.6-0.1c0.9,0,1.8,0,2.8,0c0.9,0,1.9,0,2.9,0c1,0,1.9,0,2.9,0
						c0.9,0,1.9,0,2.8,0.1c0.9,0,1.8,0.1,2.6,0.1c0.7,0,1.4-0.1,2-0.4c0.6-0.3,1.1-0.6,1.4-1c0.4-0.4,0.6-0.7,0.8-1.1
						c0.1-0.3,0.2-0.6,0.3-0.8C536.8,460.7,536.8,460.6,536.8,460.6z"/>
					<path id="XMLID_178_" class="st9" d="M536.8,456.2c-0.1-2-2.1-3.7-4.5-3.7h-16.5c-2.4,0-4.4,1.6-4.5,3.7H536.8z"/>
				</g>
				<g id="XMLID_163_">
					<path id="XMLID_174_" class="st7" d="M293.7,394.5v17.2c0,2.3-1.9,4.2-4.2,4.2h-3.6c-2.3,0-4.2-1.9-4.2-4.2v-17.2
						c0-2.3,1.9-4.2,4.2-4.2h3.6C291.9,390.3,293.7,392.2,293.7,394.5z"/>
					<path id="XMLID_173_" class="st8" d="M289.9,390.3c0,0,0.1,0,0.3,0c0.2,0,0.5,0,0.9,0.1c0.4,0.1,0.8,0.3,1.3,0.6
						c0.5,0.3,0.9,0.8,1.3,1.5c0.4,0.7,0.6,1.5,0.6,2.4c0,0.8,0.1,1.7,0.1,2.6c0,0.9,0,1.8,0.1,2.8c0,0.9,0,1.9,0,2.9
						c0,1,0,1.9,0,2.9c0,0.9,0,1.9,0,2.8c0,0.9,0,1.8-0.1,2.6c0,0.3,0,0.4-0.1,0.7c0,0.2-0.1,0.5-0.1,0.7c-0.1,0.4-0.3,0.8-0.4,1.1
						c-0.4,0.7-0.8,1.1-1.3,1.5c-0.5,0.3-0.9,0.5-1.3,0.6c-0.4,0.1-0.7,0.1-0.9,0.1c-0.2,0-0.3,0-0.3,0s0.1,0,0.3-0.1
						c0.2,0,0.5-0.1,0.8-0.3c0.3-0.2,0.7-0.4,1.1-0.8c0.4-0.4,0.7-0.8,1-1.4c0.1-0.3,0.2-0.6,0.3-1c0-0.2,0.1-0.3,0.1-0.5
						c0-0.1,0-0.4,0-0.6c0-0.8-0.1-1.7-0.1-2.6c0-0.9,0-1.8,0-2.8c0-0.9,0-1.9,0-2.9c0-1,0-1.9,0-2.9c0-0.9,0-1.9,0.1-2.8
						c0-0.9,0.1-1.8,0.1-2.6c0-0.7-0.1-1.4-0.4-2c-0.3-0.6-0.6-1.1-1-1.4c-0.4-0.4-0.7-0.6-1.1-0.8c-0.3-0.1-0.6-0.2-0.8-0.3
						C290,390.3,289.9,390.3,289.9,390.3z"/>
					<path id="XMLID_170_" class="st9" d="M285.4,390.3c-2,0.1-3.7,2.1-3.7,4.5v16.5c0,2.4,1.6,4.4,3.7,4.5V390.3z"/>
				</g>
			</g>
		</g>
		<g id="XMLID_190_" class="st5">
			<g id="XMLID_443_">
				<rect id="XMLID_477_" x="-17.4" y="38.5" class="st6" width="628.6" height="17.5"/>
				<rect id="XMLID_474_" x="-17.4" y="49.7" class="st7" width="628.6" height="6.3"/>
				<g id="XMLID_472_">
					<path id="XMLID_473_" class="st8" d="M388.1,43.1c0-0.6,0.5-1.2,1.2-1.2l164.2,0c0.6,0,1.2,0.5,1.2,1.2s-0.5,1.2-1.2,1.2
						l-164.2,0C388.6,44.2,388.1,43.7,388.1,43.1z"/>
				</g>
				<g id="XMLID_470_">
					<path id="XMLID_471_" class="st8" d="M351.8,44.2c0.2,0,0.4-0.5,0.4-1.2s-0.2-1.2-0.4-1.2l-56,0c-0.6,0-1.2,0.5-1.2,1.2v0
						c0,0.6,0.5,1.2,1.2,1.2L351.8,44.2z"/>
				</g>
				<g id="XMLID_468_">
					<path id="XMLID_469_" class="st8" d="M255.1,44.2c0.2,0,0.4-0.5,0.4-1.2c0-0.6-0.2-1.2-0.4-1.2l-56,0c-0.6,0-1.2,0.5-1.2,1.2
						l0,0c0,0.6,0.5,1.2,1.2,1.2L255.1,44.2z"/>
				</g>
				<g id="XMLID_460_">
					<path id="XMLID_465_" class="st7" d="M377.1,38.6v17.2c0,2.3-1.9,4.2-4.2,4.2h-3.6c-2.3,0-4.2-1.9-4.2-4.2V38.6
						c0-2.3,1.9-4.2,4.2-4.2h3.6C375.3,34.5,377.1,36.3,377.1,38.6z"/>
					<path id="XMLID_464_" class="st8" d="M373.3,34.5c0,0,0.1,0,0.3,0c0.2,0,0.5,0,0.9,0.1c0.4,0.1,0.8,0.3,1.3,0.6
						c0.5,0.3,0.9,0.8,1.3,1.5c0.4,0.7,0.6,1.5,0.6,2.4c0,0.8,0.1,1.7,0.1,2.6c0,0.9,0,1.8,0.1,2.8c0,0.9,0,1.9,0,2.9
						c0,1,0,1.9,0,2.9c0,0.9,0,1.9,0,2.8c0,0.9,0,1.8-0.1,2.6c0,0.3,0,0.4-0.1,0.7c0,0.2-0.1,0.5-0.1,0.7c-0.1,0.4-0.3,0.8-0.4,1.1
						c-0.4,0.7-0.8,1.1-1.3,1.5c-0.5,0.3-0.9,0.5-1.3,0.6c-0.4,0.1-0.7,0.1-0.9,0.1c-0.2,0-0.3,0-0.3,0s0.1,0,0.3-0.1
						c0.2,0,0.5-0.1,0.8-0.3c0.3-0.2,0.7-0.4,1.1-0.8c0.4-0.4,0.7-0.8,1-1.4c0.1-0.3,0.2-0.6,0.3-1c0-0.2,0.1-0.3,0.1-0.5
						c0-0.1,0-0.4,0-0.6c0-0.8-0.1-1.7-0.1-2.6c0-0.9,0-1.8,0-2.8c0-0.9,0-1.9,0-2.9c0-1,0-1.9,0-2.9c0-0.9,0-1.9,0.1-2.8
						c0-0.9,0.1-1.8,0.1-2.6c0-0.7-0.1-1.4-0.4-2c-0.3-0.6-0.6-1.1-1-1.4c-0.4-0.4-0.7-0.6-1.1-0.8c-0.3-0.1-0.6-0.2-0.8-0.3
						C373.4,34.5,373.3,34.5,373.3,34.5z"/>
					<path id="XMLID_461_" class="st9" d="M368.8,34.5c-2,0.1-3.7,2.1-3.7,4.5v16.5c0,2.4,1.6,4.4,3.7,4.5V34.5z"/>
				</g>
				<g id="XMLID_452_">
					<path id="XMLID_457_" class="st7" d="M282.5,38.6v17.2c0,2.3-1.9,4.2-4.2,4.2h-3.6c-2.3,0-4.2-1.9-4.2-4.2V38.6
						c0-2.3,1.9-4.2,4.2-4.2h3.6C280.7,34.5,282.5,36.3,282.5,38.6z"/>
					<path id="XMLID_456_" class="st8" d="M278.7,34.5c0,0,0.1,0,0.3,0c0.2,0,0.5,0,0.9,0.1c0.4,0.1,0.8,0.3,1.3,0.6
						c0.5,0.3,0.9,0.8,1.3,1.5c0.4,0.7,0.6,1.5,0.6,2.4c0,0.8,0.1,1.7,0.1,2.6c0,0.9,0,1.8,0.1,2.8c0,0.9,0,1.9,0,2.9
						c0,1,0,1.9,0,2.9c0,0.9,0,1.9,0,2.8c0,0.9,0,1.8-0.1,2.6c0,0.3,0,0.4-0.1,0.7c0,0.2-0.1,0.5-0.1,0.7c-0.1,0.4-0.3,0.8-0.4,1.1
						c-0.4,0.7-0.8,1.1-1.3,1.5c-0.5,0.3-0.9,0.5-1.3,0.6c-0.4,0.1-0.7,0.1-0.9,0.1c-0.2,0-0.3,0-0.3,0s0.1,0,0.3-0.1
						c0.2,0,0.5-0.1,0.8-0.3c0.3-0.2,0.7-0.4,1.1-0.8c0.4-0.4,0.7-0.8,1-1.4c0.1-0.3,0.2-0.6,0.3-1c0-0.2,0.1-0.3,0.1-0.5
						c0-0.1,0-0.4,0-0.6c0-0.8-0.1-1.7-0.1-2.6c0-0.9,0-1.8,0-2.8c0-0.9,0-1.9,0-2.9c0-1,0-1.9,0-2.9c0-0.9,0-1.9,0.1-2.8
						c0-0.9,0.1-1.8,0.1-2.6c0-0.7-0.1-1.4-0.4-2c-0.3-0.6-0.6-1.1-1-1.4c-0.4-0.4-0.7-0.6-1.1-0.8c-0.3-0.1-0.6-0.2-0.8-0.3
						C278.8,34.5,278.7,34.5,278.7,34.5z"/>
					<path id="XMLID_453_" class="st9" d="M274.2,34.5c-2,0.1-3.7,2.1-3.7,4.5v16.5c0,2.4,1.6,4.4,3.7,4.5V34.5z"/>
				</g>
				<g id="XMLID_444_">
					<path id="XMLID_449_" class="st7" d="M170.1,38.6v17.2c0,2.3-1.9,4.2-4.2,4.2h-3.6c-2.3,0-4.2-1.9-4.2-4.2V38.6
						c0-2.3,1.9-4.2,4.2-4.2h3.6C168.2,34.5,170.1,36.3,170.1,38.6z"/>
					<path id="XMLID_448_" class="st8" d="M166.2,34.5c0,0,0.1,0,0.3,0c0.2,0,0.5,0,0.9,0.1c0.4,0.1,0.8,0.3,1.3,0.6
						c0.5,0.3,0.9,0.8,1.3,1.5c0.4,0.7,0.6,1.5,0.6,2.4c0,0.8,0.1,1.7,0.1,2.6c0,0.9,0,1.8,0.1,2.8c0,0.9,0,1.9,0,2.9
						c0,1,0,1.9,0,2.9c0,0.9,0,1.9,0,2.8c0,0.9,0,1.8-0.1,2.6c0,0.3,0,0.4-0.1,0.7c0,0.2-0.1,0.5-0.1,0.7c-0.1,0.4-0.3,0.8-0.4,1.1
						c-0.4,0.7-0.8,1.1-1.3,1.5c-0.5,0.3-0.9,0.5-1.3,0.6c-0.4,0.1-0.7,0.1-0.9,0.1c-0.2,0-0.3,0-0.3,0s0.1,0,0.3-0.1
						c0.2,0,0.5-0.1,0.8-0.3c0.3-0.2,0.7-0.4,1.1-0.8c0.4-0.4,0.7-0.8,1-1.4c0.1-0.3,0.2-0.6,0.3-1c0-0.2,0.1-0.3,0.1-0.5
						c0-0.1,0-0.4,0-0.6c0-0.8-0.1-1.7-0.1-2.6c0-0.9,0-1.8,0-2.8c0-0.9,0-1.9,0-2.9c0-1,0-1.9,0-2.9c0-0.9,0-1.9,0.1-2.8
						c0-0.9,0.1-1.8,0.1-2.6c0-0.7-0.1-1.4-0.4-2c-0.3-0.6-0.6-1.1-1-1.4c-0.4-0.4-0.7-0.6-1.1-0.8c-0.3-0.1-0.6-0.2-0.8-0.3
						C166.3,34.5,166.2,34.5,166.2,34.5z"/>
					<path id="XMLID_445_" class="st9" d="M161.8,34.5c-2,0.1-3.7,2.1-3.7,4.5v16.5c0,2.4,1.6,4.4,3.7,4.5V34.5z"/>
				</g>
			</g>
			<g id="XMLID_408_">
				<rect id="XMLID_442_" x="-21.5" y="112.5" class="st6" width="628.6" height="17.5"/>
				<rect id="XMLID_439_" x="-21.5" y="123.7" class="st7" width="628.6" height="6.3"/>
				<g id="XMLID_437_">
					<path id="XMLID_438_" class="st8" d="M384,117.1c0-0.6,0.5-1.2,1.2-1.2l164.2,0c0.6,0,1.2,0.5,1.2,1.2c0,0.6-0.5,1.2-1.2,1.2
						l-164.2,0C384.5,118.3,384,117.7,384,117.1z"/>
				</g>
				<g id="XMLID_435_">
					<path id="XMLID_436_" class="st8" d="M347.6,118.3c0.2,0,0.4-0.5,0.4-1.2c0-0.6-0.2-1.2-0.4-1.2h-56c-0.6,0-1.2,0.5-1.2,1.2
						l0,0c0,0.6,0.5,1.2,1.2,1.2L347.6,118.3z"/>
				</g>
				<g id="XMLID_433_">
					<path id="XMLID_434_" class="st8" d="M251,118.3c0.2,0,0.4-0.5,0.4-1.2c0-0.6-0.2-1.2-0.4-1.2l-56,0c-0.6,0-1.2,0.5-1.2,1.2
						l0,0c0,0.6,0.5,1.2,1.2,1.2L251,118.3z"/>
				</g>
				<g id="XMLID_425_">
					<path id="XMLID_430_" class="st7" d="M373,112.7v17.2c0,2.3-1.9,4.2-4.2,4.2h-3.6c-2.3,0-4.2-1.9-4.2-4.2v-17.2
						c0-2.3,1.9-4.2,4.2-4.2h3.6C371.1,108.5,373,110.4,373,112.7z"/>
					<path id="XMLID_429_" class="st8" d="M369.1,108.5c0,0,0.1,0,0.3,0c0.2,0,0.5,0,0.9,0.1c0.4,0.1,0.8,0.3,1.3,0.6
						c0.5,0.3,0.9,0.8,1.3,1.5c0.4,0.7,0.6,1.5,0.6,2.4c0,0.8,0.1,1.7,0.1,2.6c0,0.9,0,1.8,0.1,2.8c0,0.9,0,1.9,0,2.9
						c0,1,0,1.9,0,2.9c0,0.9,0,1.9,0,2.8c0,0.9,0,1.8-0.1,2.6c0,0.3,0,0.4-0.1,0.7c0,0.2-0.1,0.5-0.1,0.7c-0.1,0.4-0.3,0.8-0.4,1.1
						c-0.4,0.7-0.8,1.1-1.3,1.5c-0.5,0.3-0.9,0.5-1.3,0.6c-0.4,0.1-0.7,0.1-0.9,0.1c-0.2,0-0.3,0-0.3,0s0.1,0,0.3-0.1
						c0.2,0,0.5-0.1,0.8-0.3c0.3-0.2,0.7-0.4,1.1-0.8c0.4-0.4,0.7-0.8,1-1.4c0.1-0.3,0.2-0.6,0.3-1c0-0.2,0.1-0.3,0.1-0.5
						c0-0.1,0-0.4,0-0.6c0-0.8-0.1-1.7-0.1-2.6c0-0.9,0-1.8,0-2.8c0-0.9,0-1.9,0-2.9c0-1,0-1.9,0-2.9c0-0.9,0-1.9,0.1-2.8
						c0-0.9,0.1-1.8,0.1-2.6c0-0.7-0.1-1.4-0.4-2c-0.3-0.6-0.6-1.1-1-1.4c-0.4-0.4-0.7-0.6-1.1-0.8c-0.3-0.1-0.6-0.2-0.8-0.3
						C369.2,108.5,369.1,108.5,369.1,108.5z"/>
					<path id="XMLID_426_" class="st9" d="M364.7,108.5c-2,0.1-3.7,2.1-3.7,4.5v16.5c0,2.4,1.6,4.4,3.7,4.5V108.5z"/>
				</g>
				<g id="XMLID_417_">
					<path id="XMLID_422_" class="st7" d="M278.4,112.7v17.2c0,2.3-1.9,4.2-4.2,4.2h-3.6c-2.3,0-4.2-1.9-4.2-4.2v-17.2
						c0-2.3,1.9-4.2,4.2-4.2h3.6C276.5,108.5,278.4,110.4,278.4,112.7z"/>
					<path id="XMLID_421_" class="st8" d="M274.5,108.5c0,0,0.1,0,0.3,0c0.2,0,0.5,0,0.9,0.1c0.4,0.1,0.8,0.3,1.3,0.6
						c0.5,0.3,0.9,0.8,1.3,1.5c0.4,0.7,0.6,1.5,0.6,2.4c0,0.8,0.1,1.7,0.1,2.6c0,0.9,0,1.8,0.1,2.8c0,0.9,0,1.9,0,2.9
						c0,1,0,1.9,0,2.9c0,0.9,0,1.9,0,2.8c0,0.9,0,1.8-0.1,2.6c0,0.3,0,0.4-0.1,0.7c0,0.2-0.1,0.5-0.1,0.7c-0.1,0.4-0.3,0.8-0.4,1.1
						c-0.4,0.7-0.8,1.1-1.3,1.5c-0.5,0.3-0.9,0.5-1.3,0.6c-0.4,0.1-0.7,0.1-0.9,0.1c-0.2,0-0.3,0-0.3,0s0.1,0,0.3-0.1
						c0.2,0,0.5-0.1,0.8-0.3c0.3-0.2,0.7-0.4,1.1-0.8c0.4-0.4,0.7-0.8,1-1.4c0.1-0.3,0.2-0.6,0.3-1c0-0.2,0.1-0.3,0.1-0.5
						c0-0.1,0-0.4,0-0.6c0-0.8-0.1-1.7-0.1-2.6c0-0.9,0-1.8,0-2.8c0-0.9,0-1.9,0-2.9c0-1,0-1.9,0-2.9c0-0.9,0-1.9,0.1-2.8
						c0-0.9,0.1-1.8,0.1-2.6c0-0.7-0.1-1.4-0.4-2c-0.3-0.6-0.6-1.1-1-1.4c-0.4-0.4-0.7-0.6-1.1-0.8c-0.3-0.1-0.6-0.2-0.8-0.3
						C274.6,108.5,274.5,108.5,274.5,108.5z"/>
					<path id="XMLID_418_" class="st9" d="M270.1,108.5c-2,0.1-3.7,2.1-3.7,4.5v16.5c0,2.4,1.6,4.4,3.7,4.5V108.5z"/>
				</g>
				<g id="XMLID_409_">
					<path id="XMLID_414_" class="st7" d="M166,112.7v17.2c0,2.3-1.9,4.2-4.2,4.2h-3.6c-2.3,0-4.2-1.9-4.2-4.2v-17.2
						c0-2.3,1.9-4.2,4.2-4.2h3.6C164.1,108.5,166,110.4,166,112.7z"/>
					<path id="XMLID_413_" class="st8" d="M162.1,108.5c0,0,0.1,0,0.3,0c0.2,0,0.5,0,0.9,0.1c0.4,0.1,0.8,0.3,1.3,0.6
						c0.5,0.3,0.9,0.8,1.3,1.5c0.4,0.7,0.6,1.5,0.6,2.4c0,0.8,0.1,1.7,0.1,2.6c0,0.9,0,1.8,0.1,2.8c0,0.9,0,1.9,0,2.9
						c0,1,0,1.9,0,2.9c0,0.9,0,1.9,0,2.8c0,0.9,0,1.8-0.1,2.6c0,0.3,0,0.4-0.1,0.7c0,0.2-0.1,0.5-0.1,0.7c-0.1,0.4-0.3,0.8-0.4,1.1
						c-0.4,0.7-0.8,1.1-1.3,1.5c-0.5,0.3-0.9,0.5-1.3,0.6c-0.4,0.1-0.7,0.1-0.9,0.1c-0.2,0-0.3,0-0.3,0s0.1,0,0.3-0.1
						c0.2,0,0.5-0.1,0.8-0.3c0.3-0.2,0.7-0.4,1.1-0.8c0.4-0.4,0.7-0.8,1-1.4c0.1-0.3,0.2-0.6,0.3-1c0-0.2,0.1-0.3,0.1-0.5
						c0-0.1,0-0.4,0-0.6c0-0.8-0.1-1.7-0.1-2.6c0-0.9,0-1.8,0-2.8c0-0.9,0-1.9,0-2.9c0-1,0-1.9,0-2.9c0-0.9,0-1.9,0.1-2.8
						c0-0.9,0.1-1.8,0.1-2.6c0-0.7-0.1-1.4-0.4-2c-0.3-0.6-0.6-1.1-1-1.4c-0.4-0.4-0.7-0.6-1.1-0.8c-0.3-0.1-0.6-0.2-0.8-0.3
						C162.2,108.5,162.1,108.5,162.1,108.5z"/>
					<path id="XMLID_410_" class="st9" d="M157.6,108.5c-2,0.1-3.7,2.1-3.7,4.5v16.5c0,2.4,1.6,4.4,3.7,4.5V108.5z"/>
				</g>
			</g>
			<g id="XMLID_191_">
				<g id="XMLID_336_">
					<path id="XMLID_407_" class="st6" d="M-49.2,96.6V79.1l540.5,0c22.7,0,41.1,18.5,41.1,41.1V171c0,13,10.6,23.6,23.6,23.6h56.7
						v17.5l-56.7,0c-22.7,0-41.1-18.5-41.1-41.1v-50.8c0-13-10.6-23.6-23.6-23.6L-49.2,96.6z"/>
				</g>
				<g id="XMLID_332_">
					<path id="XMLID_333_" class="st7" d="M612.8,203.4h-56.7c-17.9,0-32.4-14.5-32.4-32.4v-50.8c0-17.9-14.5-32.4-32.4-32.4
						l-540.5,0v8.8l540.5,0c13,0,23.6,10.6,23.6,23.6V171c0,22.7,18.5,41.1,41.1,41.1l56.7,0V203.4z"/>
				</g>
				<g id="XMLID_323_">
					<g id="XMLID_330_">
						<path id="XMLID_331_" class="st8" d="M158.7,83.8c0-0.6,0.5-1.2,1.2-1.2l109.4,0c0.6,0,1.2,0.5,1.2,1.2c0,0.6-0.5,1.2-1.2,1.2
							l-109.4,0C159.2,84.9,158.7,84.4,158.7,83.8z"/>
					</g>
					<g id="XMLID_328_">
						<path id="XMLID_329_" class="st8" d="M355.5,83.8c0-0.6,0.5-1.2,1.2-1.2l49.6,0c0.6,0,1.2,0.5,1.2,1.2c0,0.6-0.5,1.2-1.2,1.2
							h-49.6C356,84.9,355.5,84.4,355.5,83.8z"/>
					</g>
					<g id="XMLID_326_">
						<path id="XMLID_327_" class="st8" d="M489.9,83.1c0-0.7,0.6-1.3,1.3-1.3c21,0,38.2,17.1,38.2,38.2c0,0.7-0.6,1.3-1.3,1.3
							s-1.3-0.6-1.3-1.3c0-19.6-15.9-35.5-35.5-35.5C490.5,84.4,489.9,83.8,489.9,83.1z"/>
					</g>
					<g id="XMLID_324_">
						<path id="XMLID_325_" class="st8" d="M528.2,174c0-0.5,0.4-0.9,0.9-0.9c0.5,0,0.9,0.4,0.9,0.9c0,12.8,10.4,23.2,23.2,23.2
							c0.5,0,0.9,0.4,0.9,0.9c0,0.5-0.4,0.9-0.9,0.9C539.4,199,528.2,187.8,528.2,174z"/>
					</g>
				</g>
				<g id="XMLID_315_">
					<path id="XMLID_320_" class="st7" d="M426.5,79.3v17.2c0,2.3-1.9,4.2-4.2,4.2h-3.6c-2.3,0-4.2-1.9-4.2-4.2V79.3
						c0-2.3,1.9-4.2,4.2-4.2h3.6C424.7,75.1,426.5,76.9,426.5,79.3z"/>
					<path id="XMLID_319_" class="st8" d="M422.7,75.1c0,0,0.1,0,0.3,0c0.2,0,0.5,0,0.9,0.1c0.4,0.1,0.8,0.3,1.3,0.6
						c0.5,0.3,0.9,0.8,1.3,1.5c0.4,0.7,0.6,1.5,0.6,2.4c0,0.8,0.1,1.7,0.1,2.6c0,0.9,0,1.8,0.1,2.8c0,0.9,0,1.9,0,2.9
						c0,1,0,1.9,0,2.9c0,0.9,0,1.9,0,2.8c0,0.9,0,1.8-0.1,2.6c0,0.3,0,0.4-0.1,0.7c0,0.2-0.1,0.5-0.1,0.7c-0.1,0.4-0.3,0.8-0.4,1.1
						c-0.4,0.7-0.8,1.1-1.3,1.5c-0.5,0.3-0.9,0.5-1.3,0.6c-0.4,0.1-0.7,0.1-0.9,0.1c-0.2,0-0.3,0-0.3,0s0.1,0,0.3-0.1
						c0.2,0,0.5-0.1,0.8-0.3c0.3-0.2,0.7-0.4,1.1-0.8c0.4-0.4,0.7-0.8,1-1.4c0.1-0.3,0.2-0.6,0.3-1c0-0.2,0.1-0.3,0.1-0.5
						c0-0.1,0-0.4,0-0.6c0-0.8-0.1-1.7-0.1-2.6c0-0.9,0-1.8,0-2.8c0-0.9,0-1.9,0-2.9c0-1,0-1.9,0-2.9c0-0.9,0-1.9,0.1-2.8
						c0-0.9,0.1-1.8,0.1-2.6c0-0.7-0.1-1.4-0.4-2c-0.3-0.6-0.6-1.1-1-1.4c-0.4-0.4-0.7-0.6-1.1-0.8c-0.3-0.1-0.6-0.2-0.8-0.3
						C422.8,75.1,422.7,75.1,422.7,75.1z"/>
					<path id="XMLID_316_" class="st9" d="M418.2,75.1c-2,0.1-3.7,2.1-3.7,4.5v16.5c0,2.4,1.6,4.4,3.7,4.5V75.1z"/>
				</g>
				<g id="XMLID_307_">
					<path id="XMLID_312_" class="st7" d="M532.6,149.3h-17.2c-2.3,0-4.2-1.9-4.2-4.2v-3.6c0-2.3,1.9-4.2,4.2-4.2l17.2,0
						c2.3,0,4.2,1.9,4.2,4.2v3.6C536.8,147.4,534.9,149.3,532.6,149.3z"/>
					<path id="XMLID_311_" class="st8" d="M536.8,145.4c0,0,0,0.1,0,0.3c0,0.2,0,0.5-0.1,0.9c-0.1,0.4-0.3,0.8-0.6,1.3
						c-0.3,0.5-0.8,0.9-1.5,1.3c-0.7,0.4-1.5,0.6-2.4,0.6c-0.8,0-1.7,0.1-2.6,0.1c-0.9,0-1.8,0-2.8,0.1c-0.9,0-1.9,0-2.9,0
						c-1,0-1.9,0-2.9,0c-0.9,0-1.9,0-2.8,0c-0.9,0-1.8,0-2.6-0.1c-0.3,0-0.4,0-0.7-0.1c-0.2,0-0.5-0.1-0.7-0.1
						c-0.4-0.1-0.8-0.3-1.1-0.4c-0.7-0.4-1.1-0.8-1.5-1.3c-0.3-0.5-0.5-0.9-0.6-1.3c-0.1-0.4-0.1-0.7-0.1-0.9c0-0.2,0-0.3,0-0.3
						s0,0.1,0.1,0.3c0,0.2,0.1,0.5,0.3,0.8c0.2,0.3,0.4,0.7,0.8,1.1c0.4,0.4,0.8,0.7,1.4,1c0.3,0.1,0.6,0.2,1,0.3
						c0.2,0,0.3,0.1,0.5,0.1c0.1,0,0.4,0,0.6,0c0.8,0,1.7-0.1,2.6-0.1c0.9,0,1.8,0,2.8,0c0.9,0,1.9,0,2.9,0c1,0,1.9,0,2.9,0
						c0.9,0,1.9,0,2.8,0.1c0.9,0,1.8,0.1,2.6,0.1c0.7,0,1.4-0.1,2-0.4c0.6-0.3,1.1-0.6,1.4-1c0.4-0.4,0.6-0.7,0.8-1.1
						c0.1-0.3,0.2-0.6,0.3-0.8C536.8,145.5,536.8,145.4,536.8,145.4z"/>
					<path id="XMLID_308_" class="st9" d="M536.8,140.9c-0.1-2-2.1-3.7-4.5-3.7h-16.5c-2.4,0-4.4,1.6-4.5,3.7H536.8z"/>
				</g>
				<g id="XMLID_192_">
					<path id="XMLID_304_" class="st7" d="M293.7,79.3v17.2c0,2.3-1.9,4.2-4.2,4.2h-3.6c-2.3,0-4.2-1.9-4.2-4.2V79.3
						c0-2.3,1.9-4.2,4.2-4.2h3.6C291.9,75.1,293.7,76.9,293.7,79.3z"/>
					<path id="XMLID_239_" class="st8" d="M289.9,75.1c0,0,0.1,0,0.3,0c0.2,0,0.5,0,0.9,0.1c0.4,0.1,0.8,0.3,1.3,0.6
						c0.5,0.3,0.9,0.8,1.3,1.5c0.4,0.7,0.6,1.5,0.6,2.4c0,0.8,0.1,1.7,0.1,2.6c0,0.9,0,1.8,0.1,2.8c0,0.9,0,1.9,0,2.9
						c0,1,0,1.9,0,2.9c0,0.9,0,1.9,0,2.8c0,0.9,0,1.8-0.1,2.6c0,0.3,0,0.4-0.1,0.7c0,0.2-0.1,0.5-0.1,0.7c-0.1,0.4-0.3,0.8-0.4,1.1
						c-0.4,0.7-0.8,1.1-1.3,1.5c-0.5,0.3-0.9,0.5-1.3,0.6c-0.4,0.1-0.7,0.1-0.9,0.1c-0.2,0-0.3,0-0.3,0s0.1,0,0.3-0.1
						c0.2,0,0.5-0.1,0.8-0.3c0.3-0.2,0.7-0.4,1.1-0.8c0.4-0.4,0.7-0.8,1-1.4c0.1-0.3,0.2-0.6,0.3-1c0-0.2,0.1-0.3,0.1-0.5
						c0-0.1,0-0.4,0-0.6c0-0.8-0.1-1.7-0.1-2.6c0-0.9,0-1.8,0-2.8c0-0.9,0-1.9,0-2.9c0-1,0-1.9,0-2.9c0-0.9,0-1.9,0.1-2.8
						c0-0.9,0.1-1.8,0.1-2.6c0-0.7-0.1-1.4-0.4-2c-0.3-0.6-0.6-1.1-1-1.4c-0.4-0.4-0.7-0.6-1.1-0.8c-0.3-0.1-0.6-0.2-0.8-0.3
						C290,75.1,289.9,75.1,289.9,75.1z"/>
					<path id="XMLID_193_" class="st9" d="M285.4,75.1c-2,0.1-3.7,2.1-3.7,4.5v16.5c0,2.4,1.6,4.4,3.7,4.5V75.1z"/>
				</g>
			</g>
		</g>
		<g id="XMLID_188_">
			<g id="XMLID_372_">
				<rect id="XMLID_406_" x="-17.4" y="542.2" class="st6" width="628.6" height="17.5"/>
				<rect id="XMLID_403_" x="-17.4" y="553.4" class="st7" width="628.6" height="6.3"/>
				<g id="XMLID_401_">
					<path id="XMLID_402_" class="st8" d="M388.1,546.8c0-0.6,0.5-1.2,1.2-1.2h164.2c0.6,0,1.2,0.5,1.2,1.2s-0.5,1.2-1.2,1.2H389.3
						C388.6,547.9,388.1,547.4,388.1,546.8z"/>
				</g>
				<g id="XMLID_399_">
					<path id="XMLID_400_" class="st8" d="M351.8,547.9c0.2,0,0.4-0.5,0.4-1.2s-0.2-1.2-0.4-1.2h-56c-0.6,0-1.2,0.5-1.2,1.2l0,0
						c0,0.6,0.5,1.2,1.2,1.2H351.8z"/>
				</g>
				<g id="XMLID_397_">
					<path id="XMLID_398_" class="st8" d="M255.1,547.9c0.2,0,0.4-0.5,0.4-1.2c0-0.6-0.2-1.2-0.4-1.2h-56c-0.6,0-1.2,0.5-1.2,1.2
						l0,0c0,0.6,0.5,1.2,1.2,1.2H255.1z"/>
				</g>
				<g id="XMLID_389_">
					<path id="XMLID_394_" class="st7" d="M377.1,542.3v17.2c0,2.3-1.9,4.2-4.2,4.2h-3.6c-2.3,0-4.2-1.9-4.2-4.2v-17.2
						c0-2.3,1.9-4.2,4.2-4.2h3.6C375.3,538.1,377.1,540,377.1,542.3z"/>
					<path id="XMLID_393_" class="st8" d="M373.3,538.1c0,0,0.1,0,0.3,0c0.2,0,0.5,0,0.9,0.1c0.4,0.1,0.8,0.3,1.3,0.6
						c0.5,0.3,0.9,0.8,1.3,1.5c0.4,0.7,0.6,1.5,0.6,2.4c0,0.8,0.1,1.7,0.1,2.6c0,0.9,0,1.8,0.1,2.8c0,0.9,0,1.9,0,2.9
						c0,1,0,1.9,0,2.9c0,0.9,0,1.9,0,2.8c0,0.9,0,1.8-0.1,2.6c0,0.3,0,0.4-0.1,0.7c0,0.2-0.1,0.5-0.1,0.7c-0.1,0.4-0.3,0.8-0.4,1.1
						c-0.4,0.7-0.8,1.1-1.3,1.5c-0.5,0.3-0.9,0.5-1.3,0.6c-0.4,0.1-0.7,0.1-0.9,0.1c-0.2,0-0.3,0-0.3,0s0.1,0,0.3-0.1
						c0.2,0,0.5-0.1,0.8-0.3c0.3-0.2,0.7-0.4,1.1-0.8c0.4-0.4,0.7-0.8,1-1.4c0.1-0.3,0.2-0.6,0.3-1c0-0.2,0.1-0.3,0.1-0.5
						c0-0.1,0-0.4,0-0.6c0-0.8-0.1-1.7-0.1-2.6c0-0.9,0-1.8,0-2.8c0-0.9,0-1.9,0-2.9c0-1,0-1.9,0-2.9c0-0.9,0-1.9,0.1-2.8
						c0-0.9,0.1-1.8,0.1-2.6c0-0.7-0.1-1.4-0.4-2c-0.3-0.6-0.6-1.1-1-1.4c-0.4-0.4-0.7-0.6-1.1-0.8c-0.3-0.1-0.6-0.2-0.8-0.3
						C373.4,538.2,373.3,538.1,373.3,538.1z"/>
					<path id="XMLID_390_" class="st9" d="M368.8,538.2c-2,0.1-3.7,2.1-3.7,4.5v16.5c0,2.4,1.6,4.4,3.7,4.5V538.2z"/>
				</g>
				<g id="XMLID_381_">
					<path id="XMLID_386_" class="st7" d="M282.5,542.3v17.2c0,2.3-1.9,4.2-4.2,4.2h-3.6c-2.3,0-4.2-1.9-4.2-4.2v-17.2
						c0-2.3,1.9-4.2,4.2-4.2h3.6C280.7,538.1,282.5,540,282.5,542.3z"/>
					<path id="XMLID_385_" class="st8" d="M278.7,538.1c0,0,0.1,0,0.3,0c0.2,0,0.5,0,0.9,0.1c0.4,0.1,0.8,0.3,1.3,0.6
						c0.5,0.3,0.9,0.8,1.3,1.5c0.4,0.7,0.6,1.5,0.6,2.4c0,0.8,0.1,1.7,0.1,2.6c0,0.9,0,1.8,0.1,2.8c0,0.9,0,1.9,0,2.9
						c0,1,0,1.9,0,2.9c0,0.9,0,1.9,0,2.8c0,0.9,0,1.8-0.1,2.6c0,0.3,0,0.4-0.1,0.7c0,0.2-0.1,0.5-0.1,0.7c-0.1,0.4-0.3,0.8-0.4,1.1
						c-0.4,0.7-0.8,1.1-1.3,1.5c-0.5,0.3-0.9,0.5-1.3,0.6c-0.4,0.1-0.7,0.1-0.9,0.1c-0.2,0-0.3,0-0.3,0s0.1,0,0.3-0.1
						c0.2,0,0.5-0.1,0.8-0.3c0.3-0.2,0.7-0.4,1.1-0.8c0.4-0.4,0.7-0.8,1-1.4c0.1-0.3,0.2-0.6,0.3-1c0-0.2,0.1-0.3,0.1-0.5
						c0-0.1,0-0.4,0-0.6c0-0.8-0.1-1.7-0.1-2.6c0-0.9,0-1.8,0-2.8c0-0.9,0-1.9,0-2.9c0-1,0-1.9,0-2.9c0-0.9,0-1.9,0.1-2.8
						c0-0.9,0.1-1.8,0.1-2.6c0-0.7-0.1-1.4-0.4-2c-0.3-0.6-0.6-1.1-1-1.4c-0.4-0.4-0.7-0.6-1.1-0.8c-0.3-0.1-0.6-0.2-0.8-0.3
						C278.8,538.2,278.7,538.1,278.7,538.1z"/>
					<path id="XMLID_382_" class="st9" d="M274.2,538.2c-2,0.1-3.7,2.1-3.7,4.5v16.5c0,2.4,1.6,4.4,3.7,4.5V538.2z"/>
				</g>
				<g id="XMLID_373_">
					<path id="XMLID_378_" class="st7" d="M170.1,542.3v17.2c0,2.3-1.9,4.2-4.2,4.2h-3.6c-2.3,0-4.2-1.9-4.2-4.2v-17.2
						c0-2.3,1.9-4.2,4.2-4.2h3.6C168.2,538.1,170.1,540,170.1,542.3z"/>
					<path id="XMLID_377_" class="st8" d="M166.2,538.1c0,0,0.1,0,0.3,0c0.2,0,0.5,0,0.9,0.1c0.4,0.1,0.8,0.3,1.3,0.6
						c0.5,0.3,0.9,0.8,1.3,1.5c0.4,0.7,0.6,1.5,0.6,2.4c0,0.8,0.1,1.7,0.1,2.6c0,0.9,0,1.8,0.1,2.8c0,0.9,0,1.9,0,2.9
						c0,1,0,1.9,0,2.9c0,0.9,0,1.9,0,2.8c0,0.9,0,1.8-0.1,2.6c0,0.3,0,0.4-0.1,0.7c0,0.2-0.1,0.5-0.1,0.7c-0.1,0.4-0.3,0.8-0.4,1.1
						c-0.4,0.7-0.8,1.1-1.3,1.5c-0.5,0.3-0.9,0.5-1.3,0.6c-0.4,0.1-0.7,0.1-0.9,0.1c-0.2,0-0.3,0-0.3,0s0.1,0,0.3-0.1
						c0.2,0,0.5-0.1,0.8-0.3c0.3-0.2,0.7-0.4,1.1-0.8c0.4-0.4,0.7-0.8,1-1.4c0.1-0.3,0.2-0.6,0.3-1c0-0.2,0.1-0.3,0.1-0.5
						c0-0.1,0-0.4,0-0.6c0-0.8-0.1-1.7-0.1-2.6c0-0.9,0-1.8,0-2.8c0-0.9,0-1.9,0-2.9c0-1,0-1.9,0-2.9c0-0.9,0-1.9,0.1-2.8
						c0-0.9,0.1-1.8,0.1-2.6c0-0.7-0.1-1.4-0.4-2c-0.3-0.6-0.6-1.1-1-1.4c-0.4-0.4-0.7-0.6-1.1-0.8c-0.3-0.1-0.6-0.2-0.8-0.3
						C166.3,538.2,166.2,538.1,166.2,538.1z"/>
					<path id="XMLID_374_" class="st9" d="M161.8,538.2c-2,0.1-3.7,2.1-3.7,4.5v16.5c0,2.4,1.6,4.4,3.7,4.5V538.2z"/>
				</g>
			</g>
			<g id="XMLID_337_">
				<rect id="XMLID_371_" x="-21.5" y="616.2" class="st6" width="628.6" height="17.5"/>
				<rect id="XMLID_368_" x="-21.5" y="627.4" class="st7" width="628.6" height="6.3"/>
				<g id="XMLID_366_">
					<path id="XMLID_367_" class="st8" d="M384,620.8c0-0.6,0.5-1.2,1.2-1.2l164.2,0c0.6,0,1.2,0.5,1.2,1.2s-0.5,1.2-1.2,1.2H385.1
						C384.5,621.9,384,621.4,384,620.8z"/>
				</g>
				<g id="XMLID_364_">
					<path id="XMLID_365_" class="st8" d="M347.6,621.9c0.2,0,0.4-0.5,0.4-1.2c0-0.6-0.2-1.2-0.4-1.2h-56c-0.6,0-1.2,0.5-1.2,1.2
						l0,0c0,0.6,0.5,1.2,1.2,1.2H347.6z"/>
				</g>
				<g id="XMLID_362_">
					<path id="XMLID_363_" class="st8" d="M251,621.9c0.2,0,0.4-0.5,0.4-1.2c0-0.6-0.2-1.2-0.4-1.2h-56c-0.6,0-1.2,0.5-1.2,1.2v0
						c0,0.6,0.5,1.2,1.2,1.2H251z"/>
				</g>
				<g id="XMLID_354_">
					<path id="XMLID_359_" class="st7" d="M373,616.4v17.2c0,2.3-1.9,4.2-4.2,4.2h-3.6c-2.3,0-4.2-1.9-4.2-4.2v-17.2
						c0-2.3,1.9-4.2,4.2-4.2h3.6C371.1,612.2,373,614,373,616.4z"/>
					<path id="XMLID_358_" class="st8" d="M369.1,612.2c0,0,0.1,0,0.3,0c0.2,0,0.5,0,0.9,0.1c0.4,0.1,0.8,0.3,1.3,0.6
						c0.5,0.3,0.9,0.8,1.3,1.5c0.4,0.7,0.6,1.5,0.6,2.4c0,0.8,0.1,1.7,0.1,2.6c0,0.9,0,1.8,0.1,2.8c0,0.9,0,1.9,0,2.9
						c0,1,0,1.9,0,2.9c0,0.9,0,1.9,0,2.8c0,0.9,0,1.8-0.1,2.6c0,0.3,0,0.4-0.1,0.7c0,0.2-0.1,0.5-0.1,0.7c-0.1,0.4-0.3,0.8-0.4,1.1
						c-0.4,0.7-0.8,1.1-1.3,1.5c-0.5,0.3-0.9,0.5-1.3,0.6c-0.4,0.1-0.7,0.1-0.9,0.1c-0.2,0-0.3,0-0.3,0s0.1,0,0.3-0.1
						c0.2,0,0.5-0.1,0.8-0.3c0.3-0.2,0.7-0.4,1.1-0.8c0.4-0.4,0.7-0.8,1-1.4c0.1-0.3,0.2-0.6,0.3-1c0-0.2,0.1-0.3,0.1-0.5
						c0-0.1,0-0.4,0-0.6c0-0.8-0.1-1.7-0.1-2.6c0-0.9,0-1.8,0-2.8c0-0.9,0-1.9,0-2.9c0-1,0-1.9,0-2.9c0-0.9,0-1.9,0.1-2.8
						c0-0.9,0.1-1.8,0.1-2.6c0-0.7-0.1-1.4-0.4-2c-0.3-0.6-0.6-1.1-1-1.4c-0.4-0.4-0.7-0.6-1.1-0.8c-0.3-0.1-0.6-0.2-0.8-0.3
						C369.2,612.2,369.1,612.2,369.1,612.2z"/>
					<path id="XMLID_355_" class="st9" d="M364.7,612.2c-2,0.1-3.7,2.1-3.7,4.5v16.5c0,2.4,1.6,4.4,3.7,4.5V612.2z"/>
				</g>
				<g id="XMLID_346_">
					<path id="XMLID_351_" class="st7" d="M278.4,616.4v17.2c0,2.3-1.9,4.2-4.2,4.2h-3.6c-2.3,0-4.2-1.9-4.2-4.2v-17.2
						c0-2.3,1.9-4.2,4.2-4.2h3.6C276.5,612.2,278.4,614,278.4,616.4z"/>
					<path id="XMLID_350_" class="st8" d="M274.5,612.2c0,0,0.1,0,0.3,0c0.2,0,0.5,0,0.9,0.1c0.4,0.1,0.8,0.3,1.3,0.6
						c0.5,0.3,0.9,0.8,1.3,1.5c0.4,0.7,0.6,1.5,0.6,2.4c0,0.8,0.1,1.7,0.1,2.6c0,0.9,0,1.8,0.1,2.8c0,0.9,0,1.9,0,2.9
						c0,1,0,1.9,0,2.9c0,0.9,0,1.9,0,2.8c0,0.9,0,1.8-0.1,2.6c0,0.3,0,0.4-0.1,0.7c0,0.2-0.1,0.5-0.1,0.7c-0.1,0.4-0.3,0.8-0.4,1.1
						c-0.4,0.7-0.8,1.1-1.3,1.5c-0.5,0.3-0.9,0.5-1.3,0.6c-0.4,0.1-0.7,0.1-0.9,0.1c-0.2,0-0.3,0-0.3,0s0.1,0,0.3-0.1
						c0.2,0,0.5-0.1,0.8-0.3c0.3-0.2,0.7-0.4,1.1-0.8c0.4-0.4,0.7-0.8,1-1.4c0.1-0.3,0.2-0.6,0.3-1c0-0.2,0.1-0.3,0.1-0.5
						c0-0.1,0-0.4,0-0.6c0-0.8-0.1-1.7-0.1-2.6c0-0.9,0-1.8,0-2.8c0-0.9,0-1.9,0-2.9c0-1,0-1.9,0-2.9c0-0.9,0-1.9,0.1-2.8
						c0-0.9,0.1-1.8,0.1-2.6c0-0.7-0.1-1.4-0.4-2c-0.3-0.6-0.6-1.1-1-1.4c-0.4-0.4-0.7-0.6-1.1-0.8c-0.3-0.1-0.6-0.2-0.8-0.3
						C274.6,612.2,274.5,612.2,274.5,612.2z"/>
					<path id="XMLID_347_" class="st9" d="M270.1,612.2c-2,0.1-3.7,2.1-3.7,4.5v16.5c0,2.4,1.6,4.4,3.7,4.5V612.2z"/>
				</g>
				<g id="XMLID_338_">
					<path id="XMLID_343_" class="st7" d="M166,616.4v17.2c0,2.3-1.9,4.2-4.2,4.2h-3.6c-2.3,0-4.2-1.9-4.2-4.2v-17.2
						c0-2.3,1.9-4.2,4.2-4.2h3.6C164.1,612.2,166,614,166,616.4z"/>
					<path id="XMLID_342_" class="st8" d="M162.1,612.2c0,0,0.1,0,0.3,0c0.2,0,0.5,0,0.9,0.1c0.4,0.1,0.8,0.3,1.3,0.6
						c0.5,0.3,0.9,0.8,1.3,1.5c0.4,0.7,0.6,1.5,0.6,2.4c0,0.8,0.1,1.7,0.1,2.6c0,0.9,0,1.8,0.1,2.8c0,0.9,0,1.9,0,2.9
						c0,1,0,1.9,0,2.9c0,0.9,0,1.9,0,2.8c0,0.9,0,1.8-0.1,2.6c0,0.3,0,0.4-0.1,0.7c0,0.2-0.1,0.5-0.1,0.7c-0.1,0.4-0.3,0.8-0.4,1.1
						c-0.4,0.7-0.8,1.1-1.3,1.5c-0.5,0.3-0.9,0.5-1.3,0.6c-0.4,0.1-0.7,0.1-0.9,0.1c-0.2,0-0.3,0-0.3,0s0.1,0,0.3-0.1
						c0.2,0,0.5-0.1,0.8-0.3c0.3-0.2,0.7-0.4,1.1-0.8c0.4-0.4,0.7-0.8,1-1.4c0.1-0.3,0.2-0.6,0.3-1c0-0.2,0.1-0.3,0.1-0.5
						c0-0.1,0-0.4,0-0.6c0-0.8-0.1-1.7-0.1-2.6c0-0.9,0-1.8,0-2.8c0-0.9,0-1.9,0-2.9c0-1,0-1.9,0-2.9c0-0.9,0-1.9,0.1-2.8
						c0-0.9,0.1-1.8,0.1-2.6c0-0.7-0.1-1.4-0.4-2c-0.3-0.6-0.6-1.1-1-1.4c-0.4-0.4-0.7-0.6-1.1-0.8c-0.3-0.1-0.6-0.2-0.8-0.3
						C162.2,612.2,162.1,612.2,162.1,612.2z"/>
					<path id="XMLID_339_" class="st9" d="M157.6,612.2c-2,0.1-3.7,2.1-3.7,4.5v16.5c0,2.4,1.6,4.4,3.7,4.5V612.2z"/>
				</g>
			</g>
		</g>
		<path id="XMLID_165_" class="st3" d="M275,800.8c0,0-43.2,12-96.5,6.5c-53.3-5.5-96.5-26.5-96.5-26.5s43.2-12,96.5-6.5
			C231.8,779.8,275,800.8,275,800.8z"/>
		<path id="XMLID_243_" class="st3" d="M424.4,792.2c0,0-43.2,12-96.5,6.5c-53.3-5.5-96.5-26.5-96.5-26.5s43.2-12,96.5-6.5
			C381.2,771.3,424.4,792.2,424.4,792.2z"/>
		<path id="XMLID_175_" class="st3" d="M348.2,750.4c0,0-63.5,15-141.9,13.3S64.4,744,64.4,744s63.5-15,141.9-13.3
			C284.6,732.5,348.2,750.4,348.2,750.4z"/>
		<path id="XMLID_176_" class="st3" d="M539.9,781.2c0,0-63.6,10.6-142.1,3.5s-142.1-29.5-142.1-29.5s63.6-10.6,142.1-3.5
			C476.2,758.9,539.9,781.2,539.9,781.2z"/>
		<g id="XMLID_51_">
			<g id="XMLID_109_">
				<path id="XMLID_9_" class="st10" d="M471.2,336.6c0.9-0.8,2.3-1.5,3.3-0.9c1,0.6,1.1,1.9,1.1,3.1c0,7.3-0.9,14.6-2.8,21.6
					c-0.8,3-1.8,6.1-4.1,8.2c0.4-0.4-1.9-8-2-9.1c-0.5-3.3-0.6-6.6-1-9.8C465.1,344.5,467.1,339.9,471.2,336.6z"/>
				<path id="XMLID_18_" class="st11" d="M467.9,361.7c0.7-11,1.4-22.3-1.4-33c-0.7-2.9-1.9-5.9-4.3-7.6c-1.1,0-2.4,0.1-2.9,1.2
					s-0.5,2.2-0.5,3.3C458.7,338,461.8,351,467.9,361.7z"/>
				<path id="XMLID_21_" class="st10" d="M335.7,429.6c-11.7,2.6-23.9,2.6-35.8,3.5c-12,1-24.2,3.1-34.4,9.5
					c0.5,2.4,2.4,3.9,4.4,5.2c7.8,5.3,17.4,6.8,26.7,8.2c12.9,1.9,26.3,3.5,38.7-0.5c3.1-1,6.1-2.4,8.3-4.7c2.2-2.4,3.3-5.9,2-8.9
					C343.7,437.3,336.6,434.5,335.7,429.6z"/>
				<path id="XMLID_32_" class="st12" d="M474.6,426.1c-4.3-6-9.7-11.9-16.8-14c-6.6-2-12.9-5.2-19.4-7.6c-7.2-2.6-14.5-4-22.1-4.5
					c-13.6,7.1-29.1,9.4-43.5,14.3c-7,2.4-13.8,5.4-20.9,7.7c-7.9,2.6-16.1,4.3-24.3,5.8c2.8,11.8,6.5,23.4,9.2,35.2
					c5.9,0.8,11.7,1.8,17.2,4.1c4.9,12.8,2.3,27.1,3.2,40.8c0.4,6.3,1.9,13.1,6.7,17.2c2.7,2.3,6.2,3.5,9.7,4.5
					c15.9,4.7,32.7,6.7,49.3,6c12.8-0.5,25.6-2.7,38.2-4.9c4.4-0.7,8.4-2.8,10.1-6.9c0.2-0.4,0.3-0.8,0.7-0.9
					c0.3-0.1,0.6-0.4,0.7-0.3c0.6-8.1,2.2-16.1,3.6-24.2c1.8-10.1,3.2-20.4,4.4-30.6C482.3,453.6,483.1,437.8,474.6,426.1z"/>
				<g id="XMLID_86_">
					<path id="XMLID_87_" class="st13" d="M427.5,506.8c-0.8-21.3-0.9-42.7-0.5-64c-2.4,2.6-8.4,46.8-10.8,65.3
						c-5-2.2-9.6-5.2-13.8-8.7c-1.1-1-2.2-2-2.9-3.3c-0.6-1.2-0.8-2.6-1-4c-1.7-13-3.4-26.1-5.1-39.1c-4.9,13.6-8.8,26.8-9.4,41.2
						c-7.6-9-11.6-20.4-14.9-31.7c-2.9-9.9-5.4-19.9-6.1-30.2c-6,11.7-7.6,25-7.9,38.3c3.4,11.9,1.3,24.9,2.2,37.4
						c0.4,6.3,1.9,13.1,6.7,17.2c2.7,2.3,6.2,3.5,9.7,4.5c15.9,4.7,32.7,6.7,49.3,6c12.8-0.5,25.6-2.7,38.2-4.9
						c4.4-0.7,8.4-2.8,10.1-6.9c0.2-0.4,0.3-0.8,0.7-0.9c0.3-0.1,0.6-0.4,0.7-0.3c0.2-3,0.6-6,1-8.9c-5.5-0.9-11.1-2-16.6-2.6
						C447.1,510.1,436.8,510.5,427.5,506.8z"/>
				</g>
				<path id="XMLID_41_" class="st13" d="M390.7,439.4c7.8,0.2,15.7-1.7,22.6-5.5c4.9,2.7,9.3,6.6,13.4,10.5
					c5.6-3.9,11.2-7.5,16.6-11.8c4.5,2.1,11.4,6.4,16.3,7.3c-4.4-6.2-11.8-15.2-16.3-21.5c-1.6-2.2-3.2-4.4-5.3-6.1
					c-2.1-1.6-4.6-2.6-7.2-3.4c-6.9-2-15-2.1-20.4,2.6c-2.4,2.1-4,4.9-5.6,7.6C400.6,426.1,396.3,433.6,390.7,439.4z"/>
				<path id="XMLID_28_" class="st14" d="M476.7,568.7c0.5-20.2,0-40.8,0.5-60.9c-25.5,3.3-51.6,6.6-76.7,1.2
					c-17.2-3.7-33.5-11.6-47.2-22.7c5.9,47.4-11.8,95.5,0.8,141.6c5.6,20.3,2.7,42.1,1.6,63.2c-0.5,10.1-1.8,20.3-0.7,30.4
					s4.9,20.3,12.6,26.9c7.6,6.4,17.8,8.5,27.6,10.2c3.1,0.5,6.3,1.1,9.3,0.3c6.9-1.7,10.6-9.2,12.3-16c2.7-10.4,3.2-21.2,3.7-31.9
					c1.1-26,2.1-52,3-78c12.7-1.1,25,0.9,37.2,4.7c10.8,43,18.6,86.1,22.5,130.3c3.3-0.7,6.8-1.9,10.1-1.8
					c13.9-50.8,18.4-102.3,19.9-154.9c0.3-9.4,0.4-19-3-27.7c-1.5-4-3.9-7.8-7.6-9.9c-3.5-2.1-7.8-2.4-11.9-2.6
					C486,570.5,481.6,569,476.7,568.7z"/>
				<g id="XMLID_103_">
					<path id="XMLID_106_" class="st15" d="M390.7,518.7l2-11.7c-4.6-1.3-9.1-3-13.5-4.9l-6.7,11.3
						C372.6,513.4,377.6,519.2,390.7,518.7z"/>
					<path id="XMLID_108_" class="st15" d="M477,528.5c0-6.9,0.1-13.9,0.3-20.7c-1.3,0.2-2.5,0.3-3.8,0.5c-4.8,5.5-9.6,11-14.3,16.5
						C459.1,524.7,469.1,528.1,477,528.5z"/>
				</g>
				<g id="XMLID_84_">
					<path id="XMLID_25_" class="st16" d="M387.7,515.4c4.7-36.8,8.9-73.7,12.6-110.6c-5.1,1.9-10,2-15.2,3.5
						c-7.1,34.8-11.5,69.6-12.5,105.1C376.3,516.9,382.7,516.1,387.7,515.4z"/>
					<path id="XMLID_88_" class="st17" d="M372.8,508.1c-0.1,1.8-0.1,3.6-0.2,5.3c3.7,3.5,10.1,2.7,15.1,2c0.1-1.1,0.3-2.1,0.4-3.2
						C382.9,511.1,377.8,509.5,372.8,508.1z"/>
					
						<ellipse id="XMLID_2_" transform="matrix(1 -1.571111e-003 1.571111e-003 1 -0.7841 0.5998)" class="st17" cx="381.4" cy="499.4" rx="3.4" ry="4.6"/>
				</g>
				<path id="XMLID_36_" class="st18" d="M452.8,589.8c21.2-6,41.9-13.7,61.9-22.8c4.7-2.2,9.5-4.4,13.3-7.9c4.5-4.1,7.7-9.9,8-16
					c0.3-5.8-1.8-11.4-4.5-16.5c-2.3-4.4-5.3-8.5-8.4-12.4c-5.6-0.6-11.3-1.1-17-0.7c-5.7,0.5-11.4,2.5-16,5.9
					c1.7,3.5,3.1,7.1,4.1,10.9c0.7,2.5,1.2,5.1,0.6,7.6c-0.6,2.9-2.6,5.4-4.6,7.7c-12,13.6-27.1,24.4-43.7,31.5
					C447.8,581.9,449.9,585.6,452.8,589.8z"/>
				<path id="XMLID_101_" class="st10" d="M533.5,530.8c-0.6-1.5-1.3-2.9-2-4.3c-2.3-4.4-5.3-8.5-8.4-12.4c-5.6-0.6-11.3-1.1-17-0.7
					s-11.4,2.5-16,5.9c1.7,3.5,3.1,7.1,4.1,10.9c0.1,0.4,0.2,0.9,0.3,1.3C507.4,530.4,520.5,529.7,533.5,530.8z"/>
				<path id="XMLID_22_" class="st12" d="M447.3,405c1.8,12,6,24.6,12.4,34.9c-6.5-3-13.4-6.3-18.4-11.4c-5.8,4-11.5,9-15.2,15
					c0,0-7-12.5-15.6-16.5c-7.3,8.2-18.1,13.3-29,15.3c12.8-14.4,23.2-31.2,30.9-48.8C424.8,392.9,436.1,399.3,447.3,405z"/>
				<path id="XMLID_20_" class="st18" d="M435.5,409.1c-1,11.6-4.6,23.9-9.5,34.5c-4.1-11.6-6.6-23.8-7.4-36.2
					C424.1,407.4,430.3,407.1,435.5,409.1z"/>
				<path id="XMLID_96_" class="st10" d="M418.6,407.4c0.2,2.5,0.4,5,0.7,7.5c4.2,3.7,8.5,7.6,13.2,10.4c1.4-5.4,2.5-10.9,2.9-16.3
					C430.3,407.1,424.1,407.4,418.6,407.4z"/>
				<path id="XMLID_23_" class="st12" d="M464.8,415.6c7.9,5.4,15.6,8.4,22.2,15.3c10.4,10.9,17.8,24.3,25,37.5
					c9.4,17.3,18.8,34.6,25.9,52.9c-16.1,1.1-33.1,3.6-48.5,8.4c-1.7-7.8-4-14.1-6.4-21.6c-1.5-4.7-3.2-9.4-5.3-13.9
					c-1.5-3.2-3.1-6.2-4.3-9.5c-1.9-5.3-2.7-10.9-3.3-16.5C467.9,451,466.9,432.8,464.8,415.6z"/>
				<g id="XMLID_90_">
					<path id="XMLID_91_" class="st13" d="M482.8,481c0-0.9,0.3-1.7,0.6-2.6c2.8-8.6,4.6-17.6,5.4-26.6c-2.4,7.7-5.5,15.1-9.2,22.2
						c2.5-16.3,4.7-34-3.2-48.6c0.2-1-0.5-1.9-1.1-2.6c-0.6-0.6-1.1-1.2-1.7-1.8c-2.9-1.7-5.8-3.4-8.8-5.4
						c2.1,17.1,3.1,35.4,5.3,52.6c0.7,5.6,1.4,11.2,3.3,16.5c1.2,3.3,2.9,6.3,4.3,9.5c2.1,4.5,3.8,9.2,5.3,13.9
						c2.5,7.6,4.7,13.9,6.4,21.6c1.1-0.3,2.2-0.7,3.4-1c-1.5-15.2-4.6-30.2-9.4-44.7C483.1,483,482.8,482,482.8,481z"/>
				</g>
				<g id="XMLID_82_">
					<path id="XMLID_24_" class="st16" d="M475.9,523.1c-5.6,1-11.1,2.2-16.7,1.7c0.3-38,0.7-75,1-113c6.2,2.6,12,6.8,17.2,10.3
						C478.4,455.9,478.5,489.3,475.9,523.1z"/>
					<path id="XMLID_89_" class="st17" d="M459.2,518.7c0,2,0,4-0.1,6c5.7,0.5,11.1-0.7,16.7-1.7c0.2-2,0.3-4,0.4-5.9
						C470.5,518.5,465,519.8,459.2,518.7z"/>
					
						<ellipse id="XMLID_83_" transform="matrix(1 -1.571111e-003 1.571111e-003 1 -0.7987 0.7368)" class="st17" cx="468.6" cy="508.7" rx="3.4" ry="4.6"/>
				</g>
				<path id="XMLID_4_" class="st18" d="M472.5,361.5c3.2,8.1,7.2,16.7,5.6,25.3c-1.2,6.8-5.7,12.5-10.1,17.8
					c-4.7,5.7-9.8,11.8-16.9,13.9c-7.9,2.3-16.3-0.9-23.9-4.1c-6.6-2.7-13.4-5.7-17.9-11.2c-6.4-7.9-6.5-19.1-6.2-29.3
					c0.4-13.8,0.7-27.6,1.1-41.5c0.1-4.1,0.3-8.4,2.1-12c2.2-4.4,6.5-7.2,10.8-9.5c7-3.6,14.6-6.1,22.4-6.5
					c6.1-0.3,12.6,0.7,18.2,3.4c5.6,2.7,4.1,7.7,4.8,13.3C464,335,467.4,348.6,472.5,361.5z"/>
				<path id="XMLID_102_" class="st19" d="M472.5,361.5c-5.1-12.9-8.5-26.5-10-40.3c-0.6-4.9,0.5-9.3-2.9-12.2
					c-2.3,26.7,14.6,51.9,10.9,79.7c-1,12-7,23-18,29c-0.3,0.2-0.7,0.5-1,0.7c7-2.1,12-8.1,16.6-13.8c4.3-5.4,8.8-11,10.1-17.8
					C479.6,378.2,475.7,369.6,472.5,361.5z"/>
				<path id="XMLID_5_" class="st11" d="M409.2,328c2.5,7.9,3.4,17.4-1.4,24.2c0.1,6.3-0.2,11.5-1.8,17.6c-2.5-12-6.9-24.1-7-36.4
					c0-3.7,0.1-7.5,1.9-10.7c0.9-1.7,2.7-3.2,4.5-2.8c1.3,0.3,2.3,1.6,2.6,2.9C408.3,324.2,408.8,326.7,409.2,328z"/>
				<path id="XMLID_7_" class="st18" d="M398,336.5c-1.5-2.5-4.2-5.2-6.9-4.2c-2.3,0.8-3.1,3.6-3.3,6.1c-0.7,6.6,0,13.4,2.4,19.6
					c2.4,6.2,6.6,11.7,12.1,15.3c0.8,0.5,1.8,1,2.6,0.4c0.4-0.4,0.5-1,0.6-1.5C407.1,359.8,404.6,347.1,398,336.5z"/>
				<path id="XMLID_8_" class="st10" d="M391.3,342.6c3.3,2.4,5.8,5.9,7,9.9c-1.1-0.5-2.5-0.3-3.5,0.4c-1,0.7-1.6,1.9-1.5,3.2
					c1.4-0.3,2.7-0.7,4.1-1c0.7-0.2,1.6-0.2,1.8,0.5c0.1,0.6-0.5,1-0.9,1.3c-1.2,1.1-1,3.4,0.4,4.2c1.8,1.1,4-0.4,4.4-2.1
					c0.5-1.8-0.8-4.7-1.6-6.3C399.5,348.1,395.8,344.4,391.3,342.6z"/>
				<path id="XMLID_10_" class="st11" d="M434.7,331.7c-5.6-1.6-12,0.4-15.7,4.8c-0.5,0.6-1.3,1.6-1.2,2.4c0.1,0.8,0.8,1.5,1.6,1.7
					c4.6-3.6,11.1-5.4,17-5.2C436.6,334.5,435.3,332.5,434.7,331.7z"/>
				<path id="XMLID_11_" class="st11" d="M451.1,329.2c-1.3,1.3-1.4,3.5-0.2,4.9c4.5-1.7,9.4-2,13.9-0.3c0.8-1.1,0.3-2.7-0.7-3.6
					c-1-0.9-2.4-1.1-3.7-1.3C457.2,328.5,454.2,328.6,451.1,329.2z"/>
				<path id="XMLID_12_" class="st11" d="M446.9,335.8c-7.2-2.1-13.3-7.4-16.3-14.2C436.9,324.1,444.1,329.8,446.9,335.8z"/>
				<path id="XMLID_14_" class="st11" d="M426.7,360.7c0.2,0.8,0.4,1.7,0.9,2.4c0.5,0.7,1.4,1.2,2.2,1c0.8-0.2,1.4-0.9,1.6-1.7
					c0.2-0.8,0.1-1.6,0-2.5c-0.5-5-1.1-10-1.6-15c0-0.4-0.1-0.8-0.3-1.1c-2.1-2.5-3.4,4.5-3.4,5.3
					C425.7,353,425.9,356.9,426.7,360.7z"/>
				<path id="XMLID_16_" class="st11" d="M453.2,359.2c0.2,0.8,0.3,1.6,0.8,2.2c0.5,0.6,1.3,1.1,2,0.9c0.7-0.2,1.3-0.8,1.5-1.6
					c0.2-0.7,0.1-1.5,0-2.2c-0.5-4.6-1-9.2-1.5-13.7c0-0.3-0.1-0.7-0.3-1c-1.9-2.3-3.1,4.1-3.2,4.8
					C452.3,352.2,452.5,355.7,453.2,359.2z"/>
				<linearGradient id="XMLID_482_" gradientUnits="userSpaceOnUse" x1="440.7294" y1="364.123" x2="471.1476" y2="364.123">
					<stop  offset="0" style="stop-color:#FCAE86"/>
					<stop  offset="1" style="stop-color:#FC5286"/>
				</linearGradient>
				<path id="XMLID_15_" class="st20" d="M464.2,357c2.3,0,4.9,0.2,6.2,2c1.1,1.4,0.9,3.5,0,5.1s-2.4,2.7-3.9,3.6
					c-5,2.9-11,3.8-16.8,3.5c-2-0.1-4-0.3-5.7-1.2c-1.7-0.9-3.2-2.6-3.3-4.5C440.2,357.2,459.3,357.1,464.2,357z"/>
				<path id="XMLID_85_" class="st19" d="M446.6,359.2c0,0,0.2-0.1,0.5-0.2c0.3-0.1,0.8-0.3,1.4-0.5c0.6-0.2,1.3-0.5,2.2-0.7
					c0.9-0.2,1.8-0.5,2.9-0.7c2.2-0.4,4.7-0.7,7.5-0.9c1.4-0.1,2.7-0.2,4.3-0.2c1.5,0.1,3.2,0.2,4.7,1.2c0.4,0.3,0.7,0.6,1,0.9
					c0.1,0.1,0.1,0.1,0.2,0.3l0.1,0.2c0.1,0.2,0.3,0.4,0.3,0.6c0.4,0.8,0.4,1.7,0.4,2.6c-0.1,1.7-1.1,3.2-2.1,4.2
					c-1.1,1.1-2.3,1.8-3.4,2.3c-1.1,0.6-2.3,1-3.4,1.4c-2.1,0.7-4,0.9-5.2,1c-1.3,0.1-2,0.1-2,0.1s0.7-0.2,1.9-0.5
					c1.2-0.3,3-0.8,4.9-1.7c1-0.4,2-1,3-1.6c1-0.6,2.1-1.4,2.9-2.3c0.8-0.9,1.4-2,1.5-3.2c0.1-1.2-0.4-2.2-1.3-2.9
					c-0.9-0.7-2.3-0.9-3.6-0.9c-1.3,0-2.8,0-4.1,0c-2.7,0-5.2,0.1-7.4,0.3c-1.1,0.1-2.1,0.2-2.9,0.3c-0.9,0.1-1.6,0.2-2.3,0.3
					c-0.6,0.1-1.1,0.2-1.5,0.3C446.8,359.2,446.6,359.2,446.6,359.2z"/>
				<path id="XMLID_17_" class="st21" d="M458.4,397.2c0.2-4.8-0.2-9.9-0.7-14.7c1.4-0.8,2.1-1.9,3.5-2.7c-13.6,1.4-27.4,1.4-41-0.2
					c0.1,8.1,6.7,15.6,14.2,18.5S450.5,399.1,458.4,397.2z"/>
				<g id="XMLID_92_">
					<path id="XMLID_93_" class="st8" d="M453.2,385.8c-0.1-1.6,0-3.5,0-5.3c-11,0.7-22.1,0.4-33-0.9c0,1.5,0.3,3,0.7,4.5
						C431.4,386.6,442.4,387.2,453.2,385.8z"/>
					<path id="XMLID_94_" class="st22" d="M427,393.4c2.2,2,4.7,3.7,7.4,4.7c4.7,1.9,10,1.8,15.2,1
						C442.9,394.8,434.8,392.8,427,393.4z"/>
				</g>
				<path id="XMLID_33_" class="st15" d="M493.4,765.9c0,0,23,3.8,32,12.3c0,0-24,1-43.5,0l1.4-10.5
					C483.3,767.7,486.5,764.5,493.4,765.9z"/>
				<path id="XMLID_104_" class="st15" d="M452.3,531.5c-22.5,1.4-45.1,1.7-67.5,1.1c0.6,16.2,1.9,36.4,14.1,48.1
					c9.6,9.2,25.4,13,39.3,9.3c3-0.8,6.1-2,8.3-4.1c3.2-3,4.2-7.2,4.8-11.2C453.4,561.3,454.8,544.8,452.3,531.5z"/>
				<path id="XMLID_34_" class="st16" d="M451.1,528.5c-22.5,1.4-45.1,1.7-67.5,1.1c0.6,16.2,1.9,36.4,14.1,48.1
					c9.6,9.2,25.4,13,39.3,9.3c3-0.8,6.1-2,8.3-4.1c3.2-3,4.2-7.2,4.8-11.2C452.2,558.3,453.6,541.7,451.1,528.5z"/>
				<g id="XMLID_39_">
					<path id="XMLID_97_" class="st15" d="M378.6,726.4c-0.9-8.5,0.6-17.3-1.6-25.6c-1.7-6.4-5.4-12-8-18.1
						c-4.7-11.1-5.4-23.3-6.1-35.3c6,4.9,13.7,7.8,21.5,8.1c-12-5.1-19.6-17.6-22.4-30.4c-2.8-12.8-1.6-26-0.7-39.1
						c2-31.6,1.5-63.3-1.4-94.8c-2.2-1.6-4.4-3.2-6.5-4.9c5.9,47.4-11.8,95.5,0.8,141.6c5.6,20.3,2.7,42.1,1.6,63.2
						c-0.5,10.1-1.8,20.3-0.7,30.4c1.1,10.1,4.9,20.3,12.6,26.9c7.6,6.4,17.8,8.5,27.6,10.2c0.3,0.1,0.6,0.1,0.9,0.1
						C386.5,750.7,379.9,738.9,378.6,726.4z"/>
					<path id="XMLID_98_" class="st15" d="M467.2,591.1c-5.3,8.2-7.4,18.5-5.7,28.1c-2.7-6.6-5.3-13.2-8-19.8
						c-1.1,6.7-0.4,13.8,1.9,20.2c-20.6,2.7-41.7,2.3-62.2-1.4c8.4,7.3,19.3,12.9,30.4,14.4c12.7-1.1,25,0.9,37.2,4.7
						c10.8,43,18.6,86.1,22.5,130.3c0.7-0.2,1.4-0.3,2.1-0.5C481.2,708.4,463.8,650.1,467.2,591.1z"/>
				</g>
				<path id="XMLID_40_" class="st23" d="M445.4,581.3c-6.2-14.4-14.3-27.6-23.8-40c2.8-5.9,2.3-13.2-1.1-18.7
					c-1.2-2-2.8-3.8-4.8-4.9c-3.6-2.1-8.4-1.9-11.7,0.5c1.4,1,2.5,2.4,3.6,3.8c2.2,2.7,4.6,6,6.7,8.7c-0.8,2.1-1.8,4.7-2.3,6.9
					c-2.7,0-5.7,0.8-8.4,0.9c-3.4-3.5-6.5-7.2-9.3-11.2c-2.5,1.2-4.4,3.5-4.6,6.2c-0.4,4.2,2.3,7.9,5,11.2c1.3,1.6,2.8,3.3,4.8,3.9
					c1.7,0.5,3.6,0.3,5.3-0.1c2-0.4,4-0.9,5.9-1.5c4.3,4.8,7.9,10.4,11.5,15.7c4.8,7,10.3,13.6,16.5,19.4
					C440.6,581.4,443.4,581.1,445.4,581.3z"/>
				<g id="XMLID_143_">
					<path id="XMLID_151_" class="st2" d="M407.7,537.3c-0.7,0-1.4,0.1-2.1,0.1c-0.5,0-1.1,0-1.6,0c-1.5-1.7-3-3.4-4.6-5.1
						c-0.4-0.5-0.8-0.9-1.2-1.3c-0.4-0.4-0.8-0.9-1.2-1.3c-0.8-0.9-1.7-1.8-2.6-2.6c0.5,1.2,1,2.2,1.7,3.3c0.6,1.1,1.3,2.1,2,3.1
						c1.5,2,3.1,3.8,4.9,5.5l0.3,0.3l0.4,0c1.5-0.1,2.9-0.4,4.3-0.7c1.4-0.3,2.7-0.7,4.1-1.1C410.6,537.2,409.1,537.3,407.7,537.3z"
						/>
					<path id="XMLID_154_" class="st2" d="M444.4,578.6l-1.1-2.7c-0.8-1.8-1.5-3.6-2.4-5.3c-0.8-1.8-1.7-3.5-2.6-5.2
						c-0.9-1.7-1.9-3.4-2.8-5.1c-1-1.7-2-3.4-3-5c-1-1.7-2.1-3.3-3.2-4.9c-1.1-1.6-2.2-3.2-3.4-4.8c-1-1.4-2.1-2.8-3.2-4.2l0.3-0.6
						l0.4-1.2l0.3-1.2l0.3-1.2l0.2-1.3l0.1-1.3l0-1.3l-0.1-1.3c-0.1-0.8-0.2-1.7-0.3-2.5c-0.2-0.8-0.4-1.6-0.6-2.5
						c-0.3-0.8-0.6-1.6-0.9-2.4c-0.4-0.8-0.8-1.5-1.2-2.2c-0.4-0.7-1-1.4-1.5-2c-0.6-0.6-1.2-1.2-1.8-1.8c-0.7-0.5-1.4-1-2.1-1.4
						c-0.3-0.2-0.7-0.4-1.2-0.5c-0.4-0.1-0.8-0.3-1.2-0.4c-3.3-0.8-6.8-0.1-9.4,1.9c2.8-1.7,6.2-2,9.2-1.1c0.4,0.1,0.7,0.3,1.1,0.4
						c0.3,0.2,0.7,0.3,1,0.5c0.7,0.4,1.3,0.9,1.8,1.4c0.6,0.5,1.1,1.1,1.6,1.7c0.5,0.6,0.9,1.2,1.3,1.9c0.4,0.7,0.7,1.4,1,2.1
						c0.3,0.7,0.5,1.5,0.8,2.2c0.2,0.7,0.4,1.5,0.5,2.3c0.1,0.8,0.2,1.5,0.2,2.3l0,1.2l-0.1,1.2c-0.1,0.8-0.2,1.5-0.3,2.3l-0.2,1.1
						l-0.3,1.1l-0.4,1.1l-0.5,1.1l-0.2,0.5l0.4,0.5l3.5,4.6c1.1,1.6,2.3,3.1,3.4,4.7c1.1,1.6,2.2,3.2,3.3,4.8
						c1.1,1.6,2.1,3.3,3.1,4.9c1,1.6,2,3.3,3,5c1,1.7,2,3.3,2.9,5l1.4,2.5l1.4,2.6l2.7,5.2L444.4,578.6z"/>
				</g>
				<path id="XMLID_107_" class="st24" d="M424.2,565.4c4.3,6,9.2,11.6,14.5,16.7c1.9-0.7,4.7-1,6.7-0.8c-2.4-5.6-5.1-11-8.1-16.3
					C433,565.2,428.6,565.2,424.2,565.4z"/>
				<path id="XMLID_42_" class="st23" d="M431.5,570.4c6.1,14.4,14,27.7,23.5,40.2c-2.8,5.9-2.4,13.2,0.9,18.8c1.2,2,2.8,3.8,4.8,5
					c3.5,2.1,8.3,1.9,11.7-0.4c-1.4-1.1-2.5-2.5-3.6-3.8c-2.1-2.7-4.5-6-6.7-8.7c0.8-2.1,1.8-4.7,2.4-6.9c2.7,0,5.7-0.8,8.4-0.8
					c3.4,3.5,6.4,7.3,9.2,11.3c2.5-1.2,4.4-3.4,4.7-6.2c0.5-4.2-2.2-8-4.9-11.2c-1.3-1.6-2.8-3.3-4.8-4c-1.7-0.6-3.6-0.3-5.3,0.1
					c-2,0.4-4,0.9-6,1.4c-4.3-4.8-7.8-10.5-11.4-15.8c-4.7-7.1-10.2-13.6-16.3-19.6C436.3,570.4,433.4,570.6,431.5,570.4z"/>
				<g id="XMLID_146_">
					<path id="XMLID_156_" class="st2" d="M485.7,612.6c-0.7-1.5-1.6-2.8-2.6-4.1c-1-1.3-1.9-2.6-3.2-3.7c-0.6-0.6-1.3-1-2.1-1.4
						c-0.8-0.4-1.6-0.5-2.5-0.5c-0.8,0-1.7,0-2.5,0.2c-0.4,0.1-0.8,0.1-1.2,0.2l-1.2,0.3l-4.4,1c-2.4-2.7-4.5-5.7-6.6-8.7
						c-2.1-3.1-4.1-6.3-6.3-9.3c-2.2-3-4.6-6-7-8.8c-2.5-2.8-5.1-5.5-7.9-8c1.3,1.4,2.6,2.7,3.8,4.1c1.3,1.4,2.5,2.8,3.7,4.3
						c2.4,2.9,4.7,5.9,6.8,8.9c2.1,3.1,4.1,6.2,6.2,9.4c2.1,3.1,4.3,6.2,6.8,9l0.2,0.2l0.3-0.1l4.7-1.1l1.2-0.3
						c0.4-0.1,0.8-0.2,1.1-0.2c0.8-0.1,1.5-0.2,2.3-0.2c0.8,0,1.5,0.2,2.2,0.5c0.7,0.3,1.3,0.7,1.9,1.2c1.2,1,2.2,2.3,3.2,3.5
						c1,1.2,1.9,2.5,2.7,3.9c0.7,1.4,1.3,2.9,1.4,4.5c0.1,0.8,0,1.6-0.1,2.3c-0.2,0.8-0.5,1.5-0.9,2.2c-0.8,1.3-2.1,2.4-3.5,3.2
						c1.5-0.7,2.8-1.7,3.7-3c0.5-0.7,0.8-1.4,1-2.2c0.2-0.8,0.3-1.6,0.2-2.4C486.9,615.7,486.4,614.1,485.7,612.6z"/>
					<path id="XMLID_157_" class="st2" d="M467.4,627.5c-0.8-1.1-1.6-2.2-2.4-3.3c-0.8-1-1.6-2-2.4-3c0.4-1.1,0.8-2.1,1.1-3.2
						c0.3-1.2,0.6-2.4,0.8-3.6c-0.4,1.1-0.9,2.3-1.3,3.4l-1.4,3.3l-0.1,0.2l0.2,0.2c0.8,1.1,1.6,2.2,2.4,3.3
						c0.8,1.1,1.6,2.2,2.5,3.2c0.9,1.1,1.7,2.1,2.6,3.1c0.9,1,1.9,2,3.1,2.7c-1-0.9-1.8-2-2.6-3.1L467.4,627.5z"/>
				</g>
				<path id="XMLID_105_" class="st24" d="M461.5,599.6c-2.5-3.4-4.7-6.9-7-10.4c-4.7-7.1-10.2-13.6-16.3-19.6
					c-1.9,0.7-4.7,1-6.7,0.7c4.6,10.9,10.3,21.2,16.9,31C452.7,601.4,457.2,600.8,461.5,599.6z"/>
				<path id="XMLID_13_" class="st11" d="M450.2,326.3c-6.9,0-13.8-2-19.5-5.9C437,320.1,444.6,323.2,450.2,326.3z"/>
				<path id="XMLID_6_" class="st25" d="M462.4,321.2l1-22.1c0,0-10-11.8-21.4-11.8c0,0-27,3.2-37.3,14.2c0,0-5.4,16.6-6.9,30.3
					l15.6-4C413.4,327.7,436.8,310.9,462.4,321.2z"/>
				<g id="XMLID_19_">
					<path id="XMLID_95_" class="st16" d="M408,312.2c0.1-2.4,0.3-4.8,1.2-7c0.9-2.3,2.6-4.1,4.3-5.9c2.6-2.7,5.4-5.2,8.3-7.5
						c-6.5,2.2-13,5.3-17,9.5c0,0-5.4,16.6-6.9,30.3l10.3-2.6C407.8,323.5,407.7,317.8,408,312.2z"/>
				</g>
				<path id="XMLID_3_" class="st26" d="M463.4,316.1c0,0,17,3.9,18.6,16.3l-16.3-6.2c0,0-14.7-10.9-37.3-5.1
					C428.4,321.1,438.8,313.9,463.4,316.1z"/>
				<path id="XMLID_1_" class="st16" d="M463.4,316.1c-18.4-1.3-37.1,6.8-48.7,21.2c-5.6-1.9-11.3-3.8-16.9-5.6
					C416.1,319,441.6,312.1,463.4,316.1z"/>
				<path id="XMLID_38_" class="st18" d="M443.3,564.2c-6.5-0.5-13,2.5-18,6.7c-1.1,0.9-2.2,2.1-2.1,3.5c0.2,2.4,3.4,3,5.8,3
					c-2,0.7-3.2,3.2-2.5,5.2c0.7,2,3.1,3.2,5.1,2.4c-1.4,1.1-2,3.2-1.2,4.9c0.8,1.6,2.8,2.5,4.6,2.1c0.4,1.1-0.6,2.1-0.8,3.2
					c-0.3,1.5,0.8,3,2.1,3.7c1.4,0.7,3,0.7,4.5,0.6c2.9-0.2,5.8-0.6,8.6-1.3c3.4-0.8,6.9-2.2,9.1-4.8
					C468,582.2,455.5,565.1,443.3,564.2z"/>
				<path id="XMLID_43_" class="st10" d="M429,577.4c0,0,6.2-1.1,9.4-3.4C438.4,574,432.8,575.3,429,577.4z"/>
				<path id="XMLID_99_" class="st10" d="M430.4,585.2c0,0,5.8-5.1,12-3.4C442.4,581.8,434.4,584.7,430.4,585.2z"/>
				<path id="XMLID_100_" class="st10" d="M435,591.9c0,0,6.2-3.1,9.6-2.9C444.5,589.1,438.6,592.6,435,591.9z"/>
			</g>
			<g id="XMLID_49_">
				<path id="XMLID_47_" class="st23" d="M73.5,490.4c0,0,15.3,119.3,12.3,250.3l59,19.7l11-96.7l-16-193.7L73.5,490.4z"/>
				<path id="XMLID_147_" class="st27" d="M139.9,470l-66.3,20.4c0,0,0.4,3.4,1.1,9.6l67.6-1.1L139.9,470z"/>
				<path id="XMLID_46_" class="st8" d="M122.9,480.6c0,0,19.3,99.1,22,279.8h203.4l10.5-274.2L122.9,480.6z"/>
				<ellipse id="XMLID_114_" class="st23" cx="94.4" cy="603.4" rx="66.5" ry="100.5"/>
				<polygon id="XMLID_35_" class="st23" points="116.9,491.7 363.8,497.7 284.4,480.9 166.9,480.6 				"/>
				<path id="XMLID_45_" class="st8" d="M116.9,491.7V464c0,0,165.3-3.1,244.6,6l2.3,27.7C363.8,497.7,217.8,482.4,116.9,491.7z"/>
				<path id="XMLID_152_" class="st23" d="M361.5,470c-31.8-3.6-77.4-5.3-120.6-6c42.1,4.9,86.7,9.5,122.7,31.5L361.5,470z"/>
				<polygon id="XMLID_44_" class="st23" points="116.9,464 65.5,480.6 68.2,497.7 116.9,491.7 				"/>
				<ellipse id="XMLID_48_" class="st23" cx="241.9" cy="601.4" rx="86" ry="92.7"/>
				<ellipse id="XMLID_50_" class="st24" cx="241.9" cy="601.4" rx="73" ry="78.7"/>
				<path id="XMLID_153_" class="st28" d="M302.8,601.4c0,36.3-27.3,65.7-60.9,65.7c-0.3,0-0.7,0-1,0c-4.5-0.1-8.8-0.7-12.9-1.7
					c-27-6.8-47-32.8-47-63.9c0-34,24-62,54.8-65.3c2-0.2,4.1-0.3,6.1-0.3c2.3,0,4.7,0.1,7,0.4C279.2,539.9,302.8,567.7,302.8,601.4
					z"/>
				<ellipse id="XMLID_53_" class="st8" cx="89.4" cy="602.2" rx="66.5" ry="100.5"/>
				<ellipse id="XMLID_57_" class="st24" cx="89.4" cy="602.2" rx="46.7" ry="70.5"/>
				<ellipse id="XMLID_54_" class="st29" cx="94.4" cy="602.2" rx="42.4" ry="64"/>
				<path id="XMLID_149_" class="st30" d="M94.4,538.2c-2.3,0-4.5,0.3-6.7,0.8C68.9,568.8,63.1,605.7,61,641.6
					c3.2,6.2,7.1,11.5,11.6,15.5c3.8-41,11.4-83.4,35.6-115.4C103.9,539.5,99.2,538.2,94.4,538.2z"/>
				<path id="XMLID_148_" class="st30" d="M120.7,552.1c-15.5,36.1-25,74.7-29.5,113.9c1,0.1,2.1,0.2,3.2,0.2c1.4,0,2.7-0.1,4.1-0.3
					c5.6-36.2,13.1-72.1,27.9-105.6C124.7,557.4,122.8,554.6,120.7,552.1z"/>
				<path id="XMLID_55_" class="st24" d="M174.4,586.3c-7.1-3-15.4-3-22.5-0.1c-0.3,4,0.3,8.2,1.6,12.1c6-2.4,13.5-1.6,19.4,1
					C173,595.9,174.9,589.6,174.4,586.3z"/>
				<path id="XMLID_56_" class="st24" d="M173.5,627.5c-6.3,3.3-13.5,2.7-19.4-1.2c0.4-5.3,0.5-10.9,0.3-16.2c5.6,1.1,11.4,1.1,17,0
					C172.7,615,173.1,622.4,173.5,627.5z"/>
				<path id="XMLID_60_" class="st28" d="M43.7,603.3c1.1,6,2.1,12.9,3.2,18.9c-5.4,0.3-11,2.5-16.3,3.7c-2.2-7.1-2.9-14.7-2-22.1
					C32.7,602.7,39.5,602.8,43.7,603.3z"/>
				<path id="XMLID_58_" class="st24" d="M46.9,605.7c0-2.3-0.5-4.5-0.5-6.9c-8.7-0.9-17.5-0.3-26,1.6c0.3,2.7-0.4,5.1-0.1,7.8
					C28.4,608.3,38.8,606.8,46.9,605.7z"/>
				<path id="XMLID_59_" class="st24" d="M47.3,625.2c0.1-2.2-0.8-4.7-2-6.5c-7.8,0.1-15.6,1.4-23.1,3.7c0.1,2.1,1.2,4.5,2.1,6.3
					C32.3,627.5,39.6,627,47.3,625.2z"/>
				<path id="XMLID_111_" class="st31" d="M145.4,484.7v-15c0,0,19.5-1.4,48.5,0.3V484l-1.8-12.1c0,0-30.2-1.6-41.4-0.3L145.4,484.7
					z"/>
				<g id="XMLID_141_">
					<path id="XMLID_145_" class="st32" d="M263.7,599.4c0-29.8-22.4-54-50.1-54c-1.3,0-2.5,0.1-3.8,0.2
						c-17.3,11.6-28.8,32.2-28.8,55.8c0,20.5,8.7,38.9,22.4,50.9c3.3,0.7,6.7,1.1,10.2,1.1C241.2,653.4,263.7,629.3,263.7,599.4z"/>
				</g>
				<g id="XMLID_52_">
					<path id="XMLID_118_" class="st33" d="M248.8,536.2c-2.3-0.3-4.6-0.4-7-0.4c-2.1,0-4.1,0.1-6.1,0.3
						c23.6,9.7,40.5,34.4,40.5,63.4c0,32-20.6,58.9-48.3,65.9c4.2,1,8.5,1.6,12.9,1.7c24.3-11.4,41.3-37.4,41.3-67.6
						C282.2,572.6,268.8,549.1,248.8,536.2z"/>
				</g>
			</g>
			<g id="XMLID_37_">
				<polygon id="XMLID_61_" class="st34" points="263.7,715.7 263.7,776.2 327.9,800.7 327.9,731.2 				"/>
				<polygon id="XMLID_62_" class="st35" points="263.7,715.7 295.8,706.7 349.8,720.7 327.9,731.2 				"/>
				<polygon id="XMLID_63_" class="st36" points="295.8,706.7 295.8,699.7 350.1,714.5 349.8,720.7 				"/>
				<polygon id="XMLID_64_" class="st37" points="327.9,731.2 392.6,727.2 392.6,793 327.9,800.7 				"/>
				<polygon id="XMLID_66_" class="st37" points="349.8,720.7 392.6,727.2 350.1,714.5 				"/>
				<polygon id="XMLID_67_" class="st38" points="327.9,731.2 349.8,720.7 392.6,727.2 				"/>
				<g id="XMLID_30_">
					<g id="XMLID_65_">
						<g id="XMLID_131_">
							<polygon id="XMLID_132_" class="st36" points="327.7,754 263.3,730.9 264,729 328,752 392.5,747.2 392.7,749.2 							"/>
						</g>
					</g>
					<g id="XMLID_69_">
						<g id="XMLID_129_">
							<polygon id="XMLID_130_" class="st36" points="327.7,782.2 263.3,759.2 264,757.3 328,780.2 392.5,775.5 392.7,777.5 							
								"/>
						</g>
					</g>
				</g>
				<polygon id="XMLID_68_" class="st34" points="333.8,765.6 342.9,742.4 350.1,742.4 341.3,765.6 				"/>
				<polygon id="XMLID_73_" class="st34" points="388.6,763.6 377.6,741.2 370.4,741.9 381.1,764.3 				"/>
				<polygon id="XMLID_75_" class="st34" points="334.8,793.3 343.9,770 351.1,770 342.3,793.3 				"/>
				<polygon id="XMLID_74_" class="st34" points="388.6,790.1 377.6,767.7 370.4,768.4 381.1,790.8 				"/>
				<polygon id="XMLID_72_" class="st34" points="274.2,712.8 297.4,687 361.6,702.7 334.8,742.4 330.1,739.7 353.1,706.7 
					299.5,692.2 280.9,710.9 				"/>
				<polygon id="XMLID_76_" class="st34" points="388.6,732.5 361.6,702.7 358.3,707.7 383.1,734 				"/>
			</g>
			<g id="XMLID_110_">
				<path id="XMLID_26_" class="st18" d="M322.7,466.4c3.5,2,7,4.1,10.5,6.1c1.6,1,3.5,2,5.4,1.7s3.5-2.6,2.4-4.1
					c1.8,1.8,3.8,3.7,6.3,4c2.5,0.3,5.5-1.9,4.8-4.3c1.1,2.2,2.9,4.3,5.3,4.6c2.4,0.3,5.1-2.1,4.2-4.3c2.5,2.8,7.6,0.9,9-2.5
					c1.4-3.4,0.1-7.4-1.7-10.6c-2.6-4.5-6.2-8.4-9.9-12.1c-1.2-1.2-2.4-2.4-3.9-3.1c-2.4-1.1-5.2-0.7-7.8-0.3
					c-8.3,1.3-16.4,5.1-24.7,4.2c-11.5-1.2-22.8-3.6-33.8-7.1c-6.4-2.1-13-4.6-19.7-3.8c-5.7,0.7-10.8,3.7-15.6,6.8
					c-7.8,5-15.6,10.9-18.9,19.6c-0.7,1.7,0.4,3.8,2,4.8c1.6,0.9,3.5,1.1,5.4,1.3C269.4,469.8,295.3,469.6,322.7,466.4z"/>
				<path id="XMLID_27_" class="st10" d="M340.9,470c-3.1-2-5.5-4.1-7.9-6.9C336.1,464.6,339.1,467.1,340.9,470z"/>
				<path id="XMLID_29_" class="st10" d="M352,469.7c0,0-4.9-4.1-7.4-9.4C344.6,460.4,349.4,463,352,469.7z"/>
				<path id="XMLID_31_" class="st10" d="M361.5,470c0,0-6.9-8.7-8.6-12C352.9,458,359.2,462.5,361.5,470z"/>
			</g>
			<g id="XMLID_80_">
				<path id="XMLID_79_" class="st12" d="M240.9,804.1l-140.7-15.3L98.2,750c-0.2-3.4,0.8-6.8,2.9-9.6h0c3-4,7.9-6.3,12.9-5.9
					l134.6,10.1L240.9,804.1z"/>
				<path id="XMLID_81_" class="st17" d="M159.2,747.7l-2.1,18.9c-0.6,5.8,3.9,10.8,9.7,10.8h0c5,0,9.2-3.8,9.7-8.7l2.1-20.9H159.2z
					"/>
				<path id="XMLID_78_" class="st36" d="M198.3,746.3c1.2-6.3,2.2-12.8,0.7-19c-0.3-1.4-0.8-2.8-1.9-3.8c-1-1-2.4-1.4-3.8-1.8
					c-9.4-2.5-19.2-3.3-28.8-2.4c-1.8,0.2-3.7,0.4-5.4,1.2c-2.8,1.4-4.7,4.2-6,7c-2.2,4.7-3.2,9.9-2.9,15.1c1.1,0,2.9,0.7,4,0.7
					c0.3-5.4,2.2-11,4.9-15.7c0.7-1.2,1.7-2.5,3.1-2.4c1.6,0.1,2.5,1.9,3.7,3.1c1.6,1.6,4,1.9,6.2,1.9c2.2,0,4.4-0.3,6.6-0.9
					c2.6-0.7,5.2-1.9,7.9-2.2c2.7-0.3,5.8,0.5,7.3,2.8c2.7,4.4-2.3,10-1.2,15.1C194.4,745.1,196.6,746.2,198.3,746.3z"/>
				<g id="XMLID_112_">
					<path id="XMLID_113_" class="st13" d="M248.5,744.7l-134.6-10.1c-5-0.4-9.9,1.8-12.9,5.9c-1.7,2.3-2.7,4.9-2.9,7.7l148.4,11.6
						L248.5,744.7z"/>
				</g>
				<path id="XMLID_77_" class="st39" d="M240.9,804.1l15.3-10.8v-40.9c0-4.2-3.4-7.7-7.7-7.7h0c-4.2,0-7.7,3.4-7.7,7.7V804.1z"/>
			</g>
		</g>
	</g>
</g>
</svg>
